<?xml version="1.0" encoding="utf-8"?>
<!-- Generator: Adobe Illustrator 16.0.0, SVG Export Plug-In . SVG Version: 6.00 Build 0)  -->
<!DOCTYPE svg PUBLIC "-//W3C//DTD SVG 1.1//EN" "http://www.w3.org/Graphics/SVG/1.1/DTD/svg11.dtd">
<svg version="1.1" id="Layer_1" xmlns="http://www.w3.org/2000/svg" xmlns:xlink="http://www.w3.org/1999/xlink" x="0px" y="0px"
	 width="1329.133px" height="297.03px" viewBox="0 0 1329.133 297.03" enable-background="new 0 0 1329.133 297.03"
	 xml:space="preserve">
<path fill="#FFFFFF" d="M149.671,20.185c-73.146,0-132.444,58.891-132.444,131.533c0,42.863,20.655,80.928,52.609,104.941
	l0.03-109.803c1.039-40.074,35.979-74.855,78.957-74.855c43.633,0,79.075,35.088,79.075,77.902c0,42.818-34.83,77.906-78.463,77.906
	c-7.268,0-15.373-0.978-20.373-2.782v-32.334c5,3.005,12.834,4.747,20.322,4.747c26.459,0,47.58-20.994,47.58-46.957
	c0-25.961-21.471-46.9-47.931-46.9c-26.456,0-47.774,21.265-47.774,47.227l-0.008,123.321c15.011,5.862,31.325,9.119,48.433,9.119
	c73.147,0,132.437-58.89,132.437-131.532S222.817,20.185,149.671,20.185z"/>
<g>
	<g>
		<path fill="#FFFFFF" d="M356.335,67.884c3.934,0,7.67,0.768,11.209,2.297c3.54,1.529,6.643,3.583,9.309,6.16
			c2.665,2.579,4.763,5.617,6.292,9.11c1.528,3.497,2.295,7.212,2.295,11.145c0,4.02-0.767,7.8-2.295,11.339
			c-1.529,3.539-3.627,6.642-6.292,9.308c-2.666,2.666-5.747,4.764-9.242,6.293c-3.496,1.53-7.21,2.293-11.143,2.293h-14.028
			c-0.524,0-0.786,0.262-0.786,0.786v31.201c0,0.439-0.197,0.852-0.59,1.245c-0.393,0.393-0.809,0.591-1.245,0.591h-12.062
			c-0.523,0-0.962-0.198-1.311-0.591c-0.35-0.394-0.523-0.806-0.523-1.245V69.721c0-0.437,0.174-0.853,0.523-1.245
			c0.349-0.395,0.787-0.592,1.311-0.592H356.335z M355.157,111.015c1.92,0,3.756-0.369,5.504-1.113
			c1.748-0.742,3.279-1.77,4.589-3.081c1.312-1.312,2.36-2.84,3.146-4.587c0.787-1.748,1.181-3.672,1.181-5.77
			c0-1.921-0.394-3.713-1.181-5.375c-0.786-1.658-1.835-3.081-3.146-4.26c-1.31-1.181-2.841-2.119-4.589-2.819
			c-1.748-0.699-3.584-1.05-5.504-1.05h-12.718c-0.524,0-0.786,0.264-0.786,0.787v26.48c0,0.525,0.262,0.787,0.786,0.787H355.157z"
			/>
		<path fill="#FFFFFF" d="M396.241,99.742c0-0.524,0.198-0.961,0.591-1.312c0.393-0.347,0.807-0.522,1.246-0.522h6.555
			c1.134,0,1.746,0.437,1.834,1.31l0.263,2.36c0.087,0.611,0.151,1.201,0.196,1.77c0.043,0.569,0.066,0.896,0.066,0.982
			c0.173,0.787,0.523,0.918,1.049,0.394c0.523-0.786,1.245-1.659,2.162-2.622c0.918-0.961,2.01-1.854,3.277-2.688
			c1.266-0.828,2.666-1.506,4.195-2.031c1.527-0.525,3.211-0.786,5.048-0.786c1.135,0,2.337,0.088,3.604,0.261
			c1.267,0.177,2.402,0.46,3.41,0.853c1.002,0.394,1.789,0.876,2.357,1.442c0.568,0.569,0.678,1.202,0.328,1.901l-4.85,8.65
			c-0.525,0.876-1.573,1.05-3.147,0.524c-2.186-0.695-4.128-0.741-5.833-0.129c-1.704,0.611-3.125,1.572-4.261,2.884
			c-1.136,1.31-1.989,2.84-2.556,4.587c-0.57,1.749-0.853,3.454-0.853,5.112v35.134c0,1.226-0.831,1.836-2.491,1.836h-10.355
			c-0.439,0-0.854-0.198-1.246-0.591c-0.393-0.394-0.591-0.806-0.591-1.245V99.742z"/>
		<path fill="#FFFFFF" d="M490.201,110.819c2.184,2.798,2.666,4.241,3.892,7.603c1.222,3.364,1.835,6.882,1.835,10.554
			c0,4.371-0.832,8.478-2.491,12.321c-1.661,3.849-3.933,7.19-6.816,10.03c-2.884,2.842-6.272,5.092-10.159,6.752
			c-3.891,1.657-8.063,2.49-12.521,2.49c-3.846,0-7.561-0.833-11.144-2.49c-3.584-1.66-6.729-3.91-9.438-6.752
			c-2.71-2.84-4.874-6.182-6.489-10.03c-1.618-3.844-2.426-7.95-2.426-12.321c0-6.031,1.377-11.405,4.129-16.124
			c2.754-4.719,6.294-8.41,10.619-11.077c4.327-2.665,9.155-4.13,14.486-4.392c5.33-0.263,10.574,1.006,15.731,3.801
			c0.874,0.439,8.748,6.104,11.128,10.164c0.786,1.25-10.57,10.626-10.954,9.922c-3.221-5.904-7.733-7.586-8.432-8.025
			c-2.099-0.871-4.502-1.311-7.211-1.311c-2.185,0-4.195,0.439-6.029,1.311c-1.837,0.875-3.433,2.076-4.786,3.605
			c-1.356,1.529-2.404,3.341-3.146,5.44c-0.743,2.099-1.114,4.325-1.114,6.686c0,4.896,1.419,8.936,4.26,12.126
			c2.84,3.191,6.443,4.785,10.815,4.785c2.446,0,4.74-0.415,6.883-1.244c2.141-0.832,3.999-2.011,5.57-3.541
			c1.574-1.528,2.819-3.32,3.737-5.374c0.917-2.053,1.376-4.304,1.376-6.752c0-1.572-0.241-3.124-0.721-4.652
			c-0.481-1.529-1.07-2.906-1.77-4.133c-0.7-1.484-0.393-2.75,0.917-3.8l7.867-7.08C488.236,108.875,489.852,110.47,490.201,110.819
			z"/>
		<path fill="#FFFFFF" d="M550.199,153.753c0.525,0.698,0.634,1.374,0.327,2.031c-0.307,0.654-0.811,1.159-1.507,1.506
			c-1.836,0.877-3.913,1.641-6.228,2.296c-2.316,0.654-5.046,0.982-8.192,0.982c-3.848,0-7.563-0.833-11.145-2.49
			c-3.584-1.66-6.73-3.91-9.438-6.752c-2.71-2.84-4.873-6.182-6.489-10.03c-1.618-3.844-2.425-7.95-2.425-12.321v-0.132v-0.129
			c0-4.371,0.807-8.478,2.425-12.324c1.616-3.843,3.779-7.188,6.489-10.028c2.708-2.839,5.854-5.091,9.438-6.751
			c3.582-1.66,7.297-2.491,11.145-2.491c4.894,0,9.701,1.095,14.42,3.278c0.436,0.35,0.852,0.721,1.245,1.113
			s0.46,0.983,0.198,1.771l-4.721,8.65c-0.438,0.7-1.029,1.202-1.771,1.508c-0.743,0.307-1.464,0.242-2.162-0.197
			c-2.099-0.871-4.503-1.311-7.21-1.311c-2.099,0-4.064,0.439-5.9,1.311c-1.835,0.875-3.431,2.076-4.785,3.605
			c-1.355,1.529-2.424,3.323-3.212,5.375c-0.785,2.055-1.179,4.261-1.179,6.619c0,2.359,0.394,4.591,1.179,6.687
			c0.788,2.098,1.856,3.889,3.212,5.374c1.354,1.487,2.95,2.668,4.785,3.54c1.836,0.875,3.802,1.312,5.9,1.312
			c2.707,0,5.111-0.437,7.21-1.312c0.698-0.436,1.419-0.502,2.162-0.196c0.741,0.306,1.333,0.809,1.771,1.508L550.199,153.753z"/>
		<path fill="#FFFFFF" d="M586.771,97.513c4.197,0,8.195,0.766,11.996,2.294c3.802,1.53,7.102,3.759,9.898,6.687
			c2.795,2.93,4.958,6.576,6.489,10.946c1.527,4.371,2.204,9.438,2.032,15.204c0,0.875-0.133,1.488-0.394,1.837
			c-0.263,0.349-0.832,0.524-1.705,0.524c-7.518,0.09-14.333,0.131-20.451,0.131h-23.466c-0.086,0-0.176,0.045-0.262,0.13v0.134
			c0.086,0.438,0.414,1.268,0.984,2.489c0.566,1.226,1.462,2.514,2.686,3.866c1.224,1.357,2.84,2.623,4.851,3.805
			c2.011,1.18,4.543,1.944,7.605,2.292c2.62,0.351,4.98,0.351,7.078,0c2.097-0.348,3.954-0.852,5.569-1.507
			c1.617-0.656,3.017-1.443,4.196-2.359c1.182-0.918,2.166-1.813,2.951-2.689c0.348-0.346,0.74-0.393,1.179-0.129l7.079,6.03
			c0.349,0.351,0.525,0.654,0.525,0.917c0,0.351-0.088,0.613-0.262,0.786c-0.702,0.787-1.771,1.882-3.212,3.277
			c-1.442,1.4-3.323,2.755-5.638,4.063c-2.317,1.313-5.093,2.426-8.323,3.345c-3.235,0.916-6.95,1.331-11.144,1.245
			c-4.195-0.088-8.193-0.983-11.997-2.689c-3.802-1.703-7.102-3.974-9.897-6.815c-2.797-2.84-5.027-6.163-6.686-9.965
			c-1.661-3.8-2.49-7.885-2.49-12.255c0-4.371,0.807-8.476,2.425-12.324c1.616-3.843,3.822-7.188,6.621-10.029
			c2.795-2.837,6.074-5.088,9.832-6.75C578.601,98.344,582.577,97.513,586.771,97.513z M603.159,122.29
			c0.087-0.086,0.131-0.218,0.131-0.395c-0.437-1.048-1.027-2.248-1.77-3.604c-0.742-1.354-1.748-2.622-3.015-3.803
			c-1.269-1.181-2.841-2.183-4.72-3.015c-1.88-0.828-4.13-1.246-6.75-1.246c-2.711,0-5.005,0.506-6.883,1.51
			c-1.882,1.005-3.411,2.162-4.59,3.473c-1.18,1.312-2.055,2.623-2.621,3.932c-0.569,1.313-0.94,2.231-1.113,2.753v0.395
			c0.084,0.088,0.173,0.131,0.261,0.131h30.676C603.029,122.42,603.159,122.377,603.159,122.29z"/>
		<path fill="#FFFFFF" d="M655.594,121.242c3.672,0.611,7.08,1.31,10.227,2.097c3.146,0.785,5.876,1.88,8.194,3.276
			c2.313,1.401,4.129,3.191,5.438,5.375c1.313,2.188,1.966,4.896,1.966,8.127c0,2.885-0.633,5.572-1.9,8.063
			c-1.268,2.492-3.058,4.611-5.374,6.359c-2.317,1.747-5.092,3.125-8.324,4.128c-3.236,1.006-6.818,1.508-10.751,1.508
			c-2.884,0-5.658-0.373-8.323-1.114c-2.669-0.74-5.114-1.835-7.341-3.276c-2.23-1.443-4.152-3.212-5.77-5.31
			c-1.618-2.1-2.865-4.456-3.735-7.079c-0.524-0.96-0.394-1.924,0.394-2.885c0.521-0.786,1.353-1.179,2.49-1.179h9.307
			c1.049,0,1.922,0.393,2.622,1.179c1.485,2.186,3.231,3.67,5.244,4.457c2.011,0.787,3.976,1.18,5.9,1.18
			c3.059,0,5.525-0.437,7.405-1.312c1.879-0.871,2.82-2.14,2.82-3.802c0-0.871-0.177-1.638-0.525-2.294
			c-0.351-0.654-0.984-1.244-1.899-1.771c-0.919-0.522-2.21-0.981-3.87-1.374c-1.659-0.395-3.758-0.808-6.29-1.245
			c-2.188-0.349-4.636-0.854-7.344-1.509c-2.709-0.655-5.243-1.64-7.602-2.949c-2.361-1.311-4.326-3.036-5.9-5.178
			c-1.573-2.144-2.358-4.873-2.358-8.193c0-2.361,0.521-4.698,1.572-7.013c1.049-2.315,2.577-4.393,4.588-6.227
			c2.01-1.837,4.479-3.322,7.406-4.459c2.93-1.135,6.313-1.704,10.16-1.704c6.031,0,11.187,1.333,15.47,3.999
			c4.282,2.666,7.384,6.271,9.31,10.814c0.262,1.05,0.085,1.967-0.525,2.752c-0.177,0.438-0.523,0.787-1.05,1.05
			c-0.526,0.261-1.048,0.395-1.572,0.395h-9.438c-0.523,0-1.028-0.134-1.508-0.395c-0.481-0.263-0.941-0.612-1.377-1.05
			c-0.702-1.049-1.924-1.899-3.67-2.556c-1.751-0.655-3.629-1.025-5.639-1.114c-1.749-0.085-3.146,0-4.193,0.264
			c-1.05,0.261-1.858,0.654-2.427,1.179c-0.568,0.525-0.938,1.115-1.113,1.77c-0.176,0.655-0.264,1.245-0.264,1.769
			c0,1.489,0.633,2.538,1.902,3.146C649.193,119.755,651.748,120.455,655.594,121.242z"/>
		<path fill="#FFFFFF" d="M715.636,121.242c3.672,0.611,7.079,1.31,10.226,2.097c3.146,0.785,5.877,1.88,8.193,3.276
			c2.314,1.401,4.13,3.191,5.44,5.375c1.311,2.188,1.966,4.896,1.966,8.127c0,2.885-0.634,5.572-1.899,8.063
			c-1.27,2.492-3.06,4.611-5.376,6.359c-2.315,1.747-5.092,3.125-8.324,4.128c-3.235,1.006-6.818,1.508-10.751,1.508
			c-2.883,0-5.658-0.373-8.323-1.114c-2.668-0.74-5.114-1.835-7.341-3.276c-2.229-1.443-4.151-3.212-5.77-5.31
			c-1.618-2.1-2.863-4.456-3.734-7.079c-0.525-0.96-0.395-1.924,0.393-2.885c0.523-0.786,1.353-1.179,2.489-1.179h9.308
			c1.051,0,1.923,0.393,2.622,1.179c1.485,2.186,3.232,3.67,5.244,4.457c2.01,0.787,3.976,1.18,5.899,1.18
			c3.06,0,5.526-0.437,7.406-1.312c1.878-0.871,2.82-2.14,2.82-3.802c0-0.871-0.175-1.638-0.526-2.294
			c-0.351-0.654-0.983-1.244-1.898-1.771c-0.918-0.522-2.21-0.981-3.87-1.374c-1.659-0.395-3.758-0.808-6.291-1.245
			c-2.186-0.349-4.633-0.854-7.341-1.509c-2.709-0.655-5.246-1.64-7.604-2.949c-2.359-1.311-4.325-3.036-5.901-5.178
			c-1.57-2.144-2.357-4.873-2.357-8.193c0-2.361,0.523-4.698,1.573-7.013c1.049-2.315,2.576-4.393,4.587-6.227
			c2.011-1.837,4.479-3.322,7.406-4.459c2.928-1.135,6.314-1.704,10.16-1.704c6.032,0,11.186,1.333,15.471,3.999
			c4.281,2.666,7.385,6.271,9.309,10.814c0.26,1.05,0.084,1.967-0.525,2.752c-0.177,0.438-0.524,0.787-1.05,1.05
			c-0.524,0.261-1.046,0.395-1.572,0.395h-9.438c-0.525,0-1.028-0.134-1.508-0.395c-0.481-0.263-0.939-0.612-1.377-1.05
			c-0.701-1.049-1.924-1.899-3.67-2.556c-1.75-0.655-3.629-1.025-5.639-1.114c-1.749-0.085-3.146,0-4.194,0.264
			c-1.049,0.261-1.858,0.654-2.426,1.179c-0.568,0.525-0.938,1.115-1.113,1.77c-0.177,0.655-0.263,1.245-0.263,1.769
			c0,1.489,0.634,2.538,1.901,3.146C709.232,119.755,711.791,120.455,715.636,121.242z"/>
		<path fill="#FFFFFF" d="M855.927,159.652h-12.191c-0.439,0-0.832-0.175-1.181-0.525c-0.35-0.349-0.568-0.697-0.653-1.048
			L834.035,108c0-0.347-0.176-0.568-0.523-0.655c-0.352-0.085-0.613,0.045-0.787,0.393l-23.729,52.175
			c-0.352,0.699-0.875,1.049-1.573,1.049h-2.36c-0.7,0-1.226-0.35-1.573-1.049c-0.088-0.088-0.177-0.22-0.263-0.394
			c-0.088-0.174-0.349-0.763-0.785-1.77c-0.438-1.004-1.114-2.532-2.033-4.588c-0.916-2.052-2.251-5.002-3.997-8.85
			c-1.752-3.843-3.958-8.716-6.622-14.617c-2.665-5.898-5.921-13.216-9.767-21.957c-0.175-0.348-0.438-0.478-0.786-0.393
			c-0.349,0.087-0.57,0.309-0.655,0.655l-8.127,50.208c-0.088,0.352-0.286,0.678-0.592,0.983c-0.308,0.308-0.677,0.46-1.113,0.46
			h-11.93c-0.438,0-0.875-0.24-1.311-0.721c-0.439-0.48-0.569-1.027-0.393-1.641l15.338-89.273c0.175-0.961,0.74-1.442,1.704-1.442
			h3.8c0.787,0,1.355,0.308,1.705,0.917l27.793,62.662c0.437,0.787,0.919,0.787,1.44,0c4.633-10.398,8.564-19.182,11.8-26.348
			c3.232-7.166,5.877-13.064,7.932-17.698c2.054-4.631,3.649-8.194,4.785-10.685c1.135-2.49,1.966-4.325,2.489-5.506
			c0.525-1.18,0.854-1.855,0.984-2.033c0.131-0.172,0.195-0.304,0.195-0.393c0.264-0.609,0.83-0.917,1.705-0.917h3.671
			c0.961,0,1.528,0.481,1.703,1.442c1.922,11.188,3.627,21.04,5.113,29.563c1.484,8.521,2.754,15.927,3.803,22.218
			c1.049,6.293,1.943,11.582,2.688,15.863c0.742,4.282,1.376,7.822,1.9,10.619l1.966,11.274
			C857.895,158.951,857.323,159.652,855.927,159.652z"/>
		<path fill="#FFFFFF" d="M929.115,156.375c0,0.962-0.326,1.749-0.982,2.359c-0.656,0.611-1.465,0.918-2.428,0.918h-8.65
			c-0.963,0-1.771-0.307-2.424-0.918c-0.655-0.61-0.985-1.397-0.985-2.359v-12.586c0-1.574,0-3.124,0-4.654
			c0-1.529,0.021-2.926,0.067-4.194c0.042-1.266,0.065-2.296,0.065-3.081c0-0.787,0-1.223,0-1.311c0-4.02-0.787-7.362-2.361-10.03
			c-1.572-2.664-3.8-4.783-6.685-6.357c-2.098-1.134-4.283-1.812-6.556-2.031c-2.273-0.216-4.456-0.021-6.554,0.592
			c-2.097,0.61-4.045,1.595-5.833,2.948c-1.793,1.355-3.259,3.036-4.392,5.047c-1.751,2.973-2.382,6.141-1.902,9.504
			c0.48,3.365,1.683,6.381,3.604,9.046c1.923,2.666,4.436,4.676,7.538,6.029c3.103,1.355,6.443,1.51,10.029,0.46
			c0.874-0.262,1.616-0.195,2.229,0.197c0.61,0.393,1.136,0.938,1.571,1.638l3.542,9.7c0.262,0.702-0.047,1.226-0.919,1.575
			c-4.72,1.572-9.288,2.14-13.698,1.703c-4.414-0.439-8.437-1.618-12.062-3.54c-3.626-1.92-6.774-4.456-9.438-7.603
			c-2.666-3.146-4.635-6.642-5.901-10.487c-1.266-3.844-1.767-7.908-1.506-12.192c0.262-4.282,1.485-8.563,3.668-12.847
			c1.924-3.672,4.547-6.816,7.867-9.439c3.321-2.621,6.949-4.521,10.881-5.701c3.935-1.18,7.951-1.551,12.062-1.115
			c4.107,0.439,7.908,1.881,11.406,4.326c0.609,0.701,1.2,0.963,1.77,0.786c0.567-0.174,0.852-0.741,0.852-1.703
			c0-0.872,0.327-1.659,0.984-2.36c0.655-0.698,1.419-1.049,2.293-1.049h9.437c0.963,0,1.771,0.351,2.428,1.049
			c0.656,0.701,0.982,1.488,0.982,2.36V156.375z"/>
		<path fill="#FFFFFF" d="M1000.042,98.759c0.219,0.654,0.152,1.291-0.195,1.9l-24.515,23.857c-0.524,0.524-0.57,1.096-0.132,1.705
			c2.098,2.621,4.282,5.375,6.556,8.259c2.271,2.887,4.456,5.702,6.554,8.456c2.098,2.752,4.063,5.332,5.899,7.735
			c1.836,2.405,3.408,4.478,4.72,6.226c0.348,0.613,0.413,1.226,0.197,1.836c-0.222,0.611-0.723,0.918-1.509,0.918h-13.765
			c-0.874,0-1.487-0.263-1.836-0.786l-23.073-31.202v30.152c0,0.439-0.195,0.852-0.588,1.245c-0.394,0.393-0.81,0.591-1.246,0.591
			h-11.406c-0.525,0-0.984-0.198-1.377-0.591c-0.394-0.394-0.588-0.806-0.588-1.245V68.802c0-0.523,0.194-0.982,0.588-1.375
			c0.393-0.395,0.852-0.591,1.377-0.591h11.406c0.437,0,0.853,0.196,1.246,0.591c0.393,0.393,0.588,0.852,0.588,1.375v54.273
			l24.516-23.858c0.438-0.348,0.873-0.676,1.313-0.983c0.436-0.305,0.959-0.459,1.571-0.459h12.323
			C999.365,97.775,999.822,98.103,1000.042,98.759z"/>
		<path fill="#FFFFFF" d="M1037.471,97.513c4.195,0,8.193,0.766,11.996,2.294c3.803,1.53,7.1,3.759,9.897,6.687
			c2.796,2.93,4.958,6.576,6.489,10.946c1.529,4.371,2.206,9.438,2.031,15.204c0,0.875-0.131,1.488-0.393,1.837
			c-0.264,0.349-0.833,0.524-1.704,0.524c-7.517,0.09-14.334,0.131-20.451,0.131h-23.467c-0.087,0-0.176,0.045-0.263,0.13v0.134
			c0.087,0.438,0.415,1.268,0.984,2.489c0.566,1.226,1.463,2.514,2.687,3.866c1.224,1.357,2.838,2.623,4.853,3.805
			c2.009,1.18,4.541,1.944,7.603,2.292c2.623,0.351,4.981,0.351,7.078,0c2.098-0.348,3.954-0.852,5.572-1.507
			c1.616-0.656,3.015-1.443,4.194-2.359c1.18-0.918,2.164-1.813,2.951-2.689c0.348-0.346,0.742-0.393,1.179-0.129l7.08,6.03
			c0.35,0.351,0.524,0.654,0.524,0.917c0,0.351-0.089,0.613-0.264,0.786c-0.699,0.787-1.77,1.882-3.211,3.277
			c-1.441,1.4-3.322,2.755-5.637,4.063c-2.317,1.313-5.093,2.426-8.325,3.345c-3.233,0.916-6.948,1.331-11.143,1.245
			c-4.196-0.088-8.194-0.983-11.996-2.689c-3.801-1.703-7.102-3.974-9.898-6.815c-2.797-2.84-5.025-6.163-6.685-9.965
			c-1.661-3.8-2.49-7.885-2.49-12.255c0-4.371,0.805-8.476,2.425-12.324c1.615-3.843,3.823-7.188,6.621-10.029
			c2.795-2.837,6.073-5.088,9.832-6.75C1029.299,98.344,1033.276,97.513,1037.471,97.513z M1053.857,122.29
			c0.088-0.086,0.131-0.218,0.131-0.395c-0.437-1.048-1.027-2.248-1.77-3.604c-0.744-1.354-1.748-2.622-3.015-3.803
			c-1.269-1.181-2.842-2.183-4.72-3.015c-1.88-0.828-4.128-1.246-6.751-1.246c-2.711,0-5.004,0.506-6.883,1.51
			c-1.881,1.005-3.409,2.162-4.589,3.473c-1.179,1.312-2.055,2.623-2.622,3.932c-0.569,1.313-0.938,2.231-1.113,2.753v0.395
			c0.085,0.088,0.175,0.131,0.261,0.131h30.678C1053.729,122.42,1053.857,122.377,1053.857,122.29z"/>
		<path fill="#FFFFFF" d="M1080.26,99.742c0-0.524,0.196-0.961,0.589-1.312c0.395-0.347,0.81-0.522,1.245-0.522h6.555
			c1.137,0,1.751,0.437,1.836,1.31l0.262,2.36c0.088,0.611,0.154,1.201,0.199,1.77c0.042,0.569,0.065,0.896,0.065,0.982
			c0.174,0.787,0.524,0.918,1.047,0.394c0.524-0.786,1.246-1.659,2.164-2.622c0.917-0.961,2.009-1.854,3.278-2.688
			c1.265-0.828,2.663-1.506,4.193-2.031c1.529-0.525,3.213-0.786,5.047-0.786c1.136,0,2.338,0.088,3.605,0.261
			c1.267,0.177,2.403,0.46,3.408,0.853c1.004,0.394,1.791,0.876,2.36,1.442c0.568,0.569,0.677,1.202,0.328,1.901l-4.852,8.65
			c-0.524,0.876-1.572,1.05-3.145,0.524c-2.187-0.695-4.131-0.741-5.835-0.129c-1.704,0.611-3.126,1.572-4.26,2.884
			c-1.138,1.31-1.988,2.84-2.557,4.587c-0.569,1.749-0.853,3.454-0.853,5.112v35.134c0,1.226-0.831,1.836-2.49,1.836h-10.358
			c-0.436,0-0.851-0.198-1.245-0.591c-0.393-0.394-0.589-0.806-0.589-1.245V99.742z"/>
	</g>
</g>
<g>
	<path fill="#FFFFFF" d="M357.476,205.774l-10.628,36.356h-7.33l-14.366-50.283h7.696l10.628,37.896h0.44l10.701-37.896h6.964
		l10.628,37.896h0.439l10.702-37.896h6.963l-14.732,50.283h-7.33l-10.262-36.356H357.476z"/>
	<path fill="#FFFFFF" d="M427.695,224.758c0,5.913-1.686,10.482-5.058,13.707c-3.078,2.932-7.135,4.398-12.167,4.398
		c-5.034,0-9.09-1.467-12.168-4.398c-3.372-3.225-5.058-7.794-5.058-13.707v-2.712c0-5.912,1.686-10.456,5.058-13.634
		c3.078-2.979,7.134-4.471,12.168-4.471c5.032,0,9.089,1.491,12.167,4.471c3.372,3.178,5.058,7.722,5.058,13.634V224.758z
		 M420.806,222.707c0-4.496-1.002-7.892-3.006-10.188c-1.759-2.053-4.203-3.079-7.329-3.079c-4.838,0-8.015,2.395-9.529,7.184
		c-0.538,1.711-0.807,3.738-0.807,6.084v1.393c0,4.496,1.001,7.892,3.006,10.188c1.759,2.052,4.202,3.078,7.33,3.078
		c4.837,0,8.014-2.419,9.528-7.257c0.537-1.66,0.807-3.664,0.807-6.01V222.707z"/>
	<path fill="#FFFFFF" d="M465.517,215.669l-0.22,2.785h-6.084v-1.612c0-1.71-0.439-3.103-1.319-4.178
		c-1.612-2.15-3.592-3.226-5.938-3.226c-2.591,0-4.544,1.125-5.863,3.372c-1.076,1.857-1.613,4.178-1.613,6.963v22.356h-6.89
		v-37.456h4.911l1.026,5.571c0.732-2.199,2.735-3.982,6.01-5.351c1.417-0.635,3.054-0.953,4.911-0.953
		c1.856,0,3.457,0.306,4.801,0.916c1.344,0.611,2.48,1.454,3.409,2.528C464.563,209.538,465.517,212.297,465.517,215.669z"/>
	<path fill="#FFFFFF" d="M497.255,242.13l-11.215-13.927l-5.645,5.864v8.063h-6.89v-52.775h6.89v36.21l16.713-20.891h7.549
		l-14.439,18.179l15.393,19.277H497.255z"/>
	<path fill="#FFFFFF" d="M514.186,199.617c0-7.231,2.907-10.848,8.723-10.848c2.736,0,5.032,0.465,6.89,1.393v5.058
		c-1.515-0.635-2.761-0.953-3.738-0.953c-1.025,0-1.784,0.05-2.271,0.146c-0.489,0.099-0.93,0.318-1.319,0.66
		c-0.93,0.685-1.394,1.955-1.394,3.812v5.79h8.723v5.498h-8.723v31.958h-6.89v-31.958h-4.104v-5.498h4.104V199.617z"/>
	<path fill="#FFFFFF" d="M537.787,242.13v-52.775h6.891v52.775H537.787z"/>
	<path fill="#FFFFFF" d="M589.315,224.758c0,5.913-1.686,10.482-5.058,13.707c-3.078,2.932-7.135,4.398-12.167,4.398
		c-5.034,0-9.09-1.467-12.168-4.398c-3.372-3.225-5.058-7.794-5.058-13.707v-2.712c0-5.912,1.686-10.456,5.058-13.634
		c3.078-2.979,7.134-4.471,12.168-4.471c5.032,0,9.089,1.491,12.167,4.471c3.372,3.178,5.058,7.722,5.058,13.634V224.758z
		 M582.426,222.707c0-4.496-1.002-7.892-3.006-10.188c-1.759-2.053-4.203-3.079-7.329-3.079c-4.838,0-8.015,2.395-9.529,7.184
		c-0.538,1.711-0.807,3.738-0.807,6.084v1.393c0,4.496,1.001,7.892,3.006,10.188c1.759,2.052,4.202,3.078,7.33,3.078
		c4.837,0,8.014-2.419,9.528-7.257c0.537-1.66,0.807-3.664,0.807-6.01V222.707z"/>
	<path fill="#FFFFFF" d="M622.593,215.962l-8.502,26.168h-7.184l-12.314-37.456h7.11l8.723,27.414h0.293l8.869-27.414h6.743
		l8.723,27.414h0.293l8.869-27.414h6.744l-12.241,37.456h-7.184l-8.648-26.168H622.593z"/>
	<path fill="#FFFFFF" d="M705.932,231.208H681.89l-4.178,10.922h-6.964l19.645-50.283h7.916l19.645,50.283h-7.771L705.932,231.208z
		 M693.764,200.497l-9.309,24.188h18.984l-9.235-24.188H693.764z"/>
	<path fill="#FFFFFF" d="M732.173,221.167v20.964h-7.184v-50.283h21.697c4.251,0,7.793,1.319,10.628,3.958
		c2.932,2.786,4.397,6.354,4.397,10.702c0,4.35-1.466,7.916-4.397,10.701c-2.835,2.639-6.377,3.958-10.628,3.958H732.173z
		 M732.173,198.371v16.272h13.854c2.296,0,4.3-0.806,6.011-2.419c1.66-1.563,2.492-3.469,2.492-5.717
		c0-2.247-0.807-4.153-2.419-5.718c-1.711-1.612-3.738-2.419-6.084-2.419H732.173z"/>
	<path fill="#FFFFFF" d="M767.868,191.847h18.911v6.523h-5.864v37.236h5.864v6.523h-18.911v-6.523h5.864v-37.236h-5.864V191.847z"/>
</g>
<g>
	<path fill="#FFFFFF" d="M1154.961,93.549h15.199v68.103h-15.199V93.549z"/>
	<path fill="#FFFFFF" d="M1221.991,83.221h13.835l-40.92,89.343h-13.737L1221.991,83.221z"/>
	<path fill="#FFFFFF" d="M1301.689,152.25c-6.885,6.723-15.361,10.084-25.429,10.084c-10.068,0-18.545-3.361-25.429-10.084
		c-6.886-6.723-10.328-15.084-10.328-25.088c0-10.001,3.442-18.365,10.328-25.088c6.884-6.723,15.36-10.084,25.429-10.084
		c10.067,0,18.544,3.361,25.429,10.084s10.328,15.086,10.328,25.088C1312.018,137.166,1308.574,145.527,1301.689,152.25z
		 M1296.526,127.21c0-6.072-1.949-11.253-5.846-15.54c-3.897-4.287-8.688-6.43-14.371-6.43c-5.685,0-10.474,2.144-14.371,6.43
		c-3.897,4.287-5.846,9.468-5.846,15.54c0,6.074,1.948,11.238,5.846,15.491c3.897,4.255,8.687,6.382,14.371,6.382
		c5.683,0,10.474-2.127,14.371-6.382C1294.577,138.449,1296.526,133.285,1296.526,127.21z"/>
</g>
</svg>
