<?xml version="1.0" encoding="utf-8"?>
<!-- Generator: Adobe Illustrator 16.0.0, SVG Export Plug-In . SVG Version: 6.00 Build 0)  -->
<!DOCTYPE svg PUBLIC "-//W3C//DTD SVG 1.1//EN" "http://www.w3.org/Graphics/SVG/1.1/DTD/svg11.dtd">
<svg version="1.1" id="Layer_1" xmlns="http://www.w3.org/2000/svg" xmlns:xlink="http://www.w3.org/1999/xlink" x="0px" y="0px"
	 width="1328.933px" height="277.486px" viewBox="0 0 1328.933 277.486" enable-background="new 0 0 1328.933 277.486"
	 xml:space="preserve">
<g id="h8tNip_1_">
</g>
<g id="_x31_3pqy9_1_">
</g>
<g id="_x36_A5BAB_3_">
	<path fill="#3397E1" d="M-4692.597,860.476c-91.869,0-166.345,73.965-166.345,165.201c0,53.834,25.941,101.642,66.075,131.802
		l0.039-137.908c1.304-50.331,45.187-94.016,99.166-94.016c54.803,0,99.316,44.069,99.316,97.843
		c0,53.778-43.542,97.847-98.342,97.847c-9.129,0-19.38-1.228-25.38-3.493v-40.611c6,3.774,15.912,5.963,25.318,5.963
		c33.23,0,59.656-26.368,59.656-58.977c0-32.606-27.019-58.905-60.251-58.905c-33.228,0-60.029,26.708-60.029,59.315l-0.021,154.887
		c18.853,7.362,39.337,11.453,60.823,11.453c91.87,0,166.331-73.963,166.331-165.199S-4600.727,860.476-4692.597,860.476z"/>
	<g>
		<g>
			<path fill="#231F20" d="M-4433.033,960.408c4.94,0,9.633,0.964,14.078,2.884c4.445,1.921,8.342,4.501,11.69,7.737
				c3.348,3.239,5.981,7.055,7.903,11.442c1.919,4.393,2.881,9.058,2.881,13.997c0,5.049-0.962,9.797-2.881,14.242
				c-1.922,4.443-4.556,8.341-7.903,11.689c-3.349,3.348-7.218,5.982-11.608,7.903c-4.39,1.922-9.055,2.88-13.994,2.88h-17.619
				c-0.658,0-0.987,0.329-0.987,0.987v39.188c0,0.553-0.247,1.07-0.74,1.563s-1.017,0.743-1.564,0.743h-15.148
				c-0.658,0-1.209-0.25-1.646-0.743c-0.439-0.493-0.657-1.011-0.657-1.563V962.715c0-0.549,0.218-1.071,0.657-1.563
				c0.438-0.495,0.988-0.743,1.646-0.743H-4433.033z M-4434.513,1014.579c2.411,0,4.717-0.465,6.913-1.398
				c2.195-0.932,4.117-2.224,5.763-3.87c1.647-1.646,2.964-3.566,3.952-5.762s1.482-4.61,1.482-7.246
				c0-2.412-0.494-4.663-1.482-6.75c-0.988-2.083-2.305-3.87-3.952-5.351c-1.646-1.482-3.567-2.661-5.763-3.541
				c-2.196-0.878-4.502-1.317-6.913-1.317h-15.974c-0.658,0-0.987,0.33-0.987,0.988v33.259c0,0.659,0.329,0.988,0.987,0.988
				H-4434.513z"/>
			<path fill="#231F20" d="M-4382.913,1000.42c0-0.659,0.249-1.207,0.741-1.647c0.494-0.436,1.015-0.657,1.565-0.657h8.232
				c1.425,0,2.194,0.549,2.304,1.646l0.33,2.964c0.108,0.769,0.189,1.51,0.247,2.223c0.054,0.716,0.083,1.127,0.083,1.235
				c0.217,0.987,0.658,1.152,1.316,0.493c0.658-0.987,1.564-2.083,2.717-3.293c1.153-1.206,2.523-2.329,4.116-3.375
				c1.589-1.041,3.348-1.893,5.269-2.552c1.919-0.659,4.033-0.987,6.34-0.987c1.426,0,2.936,0.11,4.527,0.328
				c1.591,0.222,3.018,0.577,4.282,1.07c1.26,0.494,2.247,1.1,2.962,1.812c0.714,0.715,0.851,1.51,0.412,2.388l-6.092,10.865
				c-0.659,1.1-1.976,1.318-3.952,0.659c-2.745-0.875-5.186-0.932-7.326-0.163s-3.926,1.976-5.352,3.622
				c-1.427,1.645-2.498,3.567-3.21,5.761c-0.717,2.197-1.07,4.339-1.07,6.421v44.127c0,1.54-1.045,2.307-3.129,2.307h-13.007
				c-0.551,0-1.071-0.25-1.565-0.743c-0.492-0.493-0.741-1.011-0.741-1.563V1000.42z"/>
			<path fill="#231F20" d="M-4264.902,1014.332c2.742,3.514,3.348,5.326,4.887,9.549c1.535,4.226,2.305,8.644,2.305,13.255
				c0,5.489-1.044,10.647-3.128,15.475c-2.087,4.834-4.939,9.031-8.562,12.598c-3.622,3.569-7.878,6.396-12.76,8.48
				c-4.886,2.082-10.127,3.128-15.725,3.128c-4.831,0-9.496-1.046-13.996-3.128c-4.502-2.085-8.452-4.911-11.854-8.48
				c-3.404-3.566-6.121-7.764-8.15-12.598c-2.032-4.827-3.047-9.985-3.047-15.475c0-7.575,1.729-14.325,5.187-20.252
				c3.459-5.927,7.904-10.563,13.337-13.912c5.435-3.348,11.498-5.187,18.194-5.516c6.694-0.33,13.28,1.264,19.758,4.773
				c1.098,0.552,10.987,7.667,13.977,12.766c0.987,1.57-13.276,13.346-13.759,12.462c-4.045-7.415-9.713-9.527-10.59-10.08
				c-2.635-1.094-5.653-1.646-9.056-1.646c-2.744,0-5.27,0.552-7.573,1.646c-2.307,1.1-4.311,2.608-6.011,4.528
				c-1.704,1.921-3.021,4.196-3.951,6.833c-0.934,2.637-1.399,5.433-1.399,8.397c0,6.149,1.782,11.223,5.351,15.229
				c3.566,4.009,8.093,6.011,13.584,6.011c3.072,0,5.953-0.521,8.644-1.563c2.688-1.045,5.022-2.525,6.997-4.447
				c1.977-1.92,3.541-4.17,4.693-6.75c1.152-2.577,1.729-5.405,1.729-8.479c0-1.975-0.303-3.924-0.905-5.844
				c-0.604-1.92-1.345-3.649-2.223-5.19c-0.879-1.864-0.493-3.453,1.152-4.772l9.88-8.892
				C-4267.371,1011.891-4265.342,1013.894-4264.902,1014.332z"/>
			<path fill="#231F20" d="M-4189.548,1068.256c0.66,0.877,0.797,1.727,0.411,2.552c-0.385,0.821-1.018,1.456-1.893,1.892
				c-2.306,1.101-4.914,2.061-7.821,2.883c-2.909,0.822-6.338,1.234-10.29,1.234c-4.832,0-9.497-1.046-13.996-3.128
				c-4.502-2.085-8.453-4.911-11.854-8.48c-3.403-3.566-6.121-7.764-8.15-12.598c-2.032-4.827-3.046-9.985-3.046-15.475v-0.166
				v-0.162c0-5.489,1.014-10.646,3.046-15.479c2.029-4.826,4.747-9.027,8.15-12.595c3.401-3.566,7.353-6.394,11.854-8.479
				c4.499-2.084,9.164-3.129,13.996-3.129c6.146,0,12.185,1.375,18.111,4.117c0.548,0.439,1.07,0.905,1.563,1.399
				c0.495,0.493,0.578,1.234,0.249,2.224l-5.929,10.865c-0.549,0.88-1.292,1.51-2.224,1.894c-0.934,0.386-1.839,0.305-2.716-0.248
				c-2.635-1.094-5.655-1.646-9.056-1.646c-2.635,0-5.104,0.552-7.41,1.646c-2.305,1.1-4.309,2.608-6.01,4.528
				c-1.703,1.921-3.045,4.174-4.034,6.752c-0.986,2.58-1.48,5.351-1.48,8.313c0,2.964,0.494,5.766,1.48,8.398
				c0.989,2.635,2.331,4.884,4.034,6.749c1.701,1.868,3.705,3.352,6.01,4.446c2.307,1.1,4.775,1.647,7.41,1.647
				c3.4,0,6.421-0.548,9.056-1.647c0.877-0.547,1.782-0.63,2.716-0.246c0.932,0.384,1.675,1.016,2.224,1.894L-4189.548,1068.256z"/>
			<path fill="#231F20" d="M-4143.614,997.62c5.272,0,10.293,0.963,15.067,2.882c4.774,1.922,8.919,4.721,12.432,8.397
				c3.511,3.68,6.228,8.26,8.15,13.749c1.918,5.489,2.769,11.853,2.552,19.096c0,1.099-0.167,1.868-0.494,2.307
				c-0.329,0.438-1.045,0.659-2.142,0.659c-9.441,0.112-18.001,0.164-25.686,0.164h-29.473c-0.107,0-0.22,0.056-0.328,0.163v0.168
				c0.108,0.551,0.521,1.592,1.236,3.126c0.712,1.539,1.836,3.157,3.373,4.856c1.537,1.705,3.566,3.294,6.092,4.778
				c2.525,1.481,5.706,2.442,9.552,2.879c3.292,0.44,6.256,0.44,8.891,0c2.633-0.437,4.966-1.07,6.995-1.893
				c2.03-0.824,3.788-1.813,5.271-2.964c1.483-1.153,2.72-2.277,3.706-3.378c0.437-0.434,0.93-0.493,1.48-0.162l8.891,7.574
				c0.438,0.44,0.66,0.822,0.66,1.152c0,0.439-0.11,0.77-0.329,0.987c-0.882,0.988-2.225,2.363-4.033,4.116
				c-1.813,1.758-4.174,3.459-7.081,5.104c-2.911,1.648-6.396,3.047-10.454,4.2c-4.063,1.15-8.729,1.672-13.996,1.564
				c-5.269-0.111-10.29-1.235-15.067-3.378c-4.774-2.14-8.919-4.991-12.431-8.561c-3.513-3.566-6.314-7.74-8.396-12.515
				c-2.087-4.773-3.128-9.903-3.128-15.393s1.013-10.645,3.045-15.479c2.03-4.826,4.801-9.026,8.316-12.596
				c3.51-3.563,7.629-6.391,12.349-8.478C-4153.877,998.664-4148.882,997.62-4143.614,997.62z M-4123.031,1028.738
				c0.108-0.107,0.164-0.273,0.164-0.495c-0.548-1.315-1.291-2.823-2.223-4.525c-0.933-1.702-2.195-3.294-3.786-4.776
				c-1.594-1.482-3.568-2.741-5.928-3.787c-2.361-1.04-5.187-1.563-8.479-1.563c-3.404,0-6.285,0.635-8.644,1.895
				c-2.364,1.263-4.284,2.716-5.766,4.362c-1.481,1.647-2.58,3.294-3.291,4.938c-0.716,1.648-1.182,2.802-1.398,3.457v0.495
				c0.105,0.111,0.217,0.165,0.327,0.165h38.528C-4123.194,1028.903-4123.031,1028.85-4123.031,1028.738z"/>
			<path fill="#231F20" d="M-4057.176,1027.423c4.611,0.768,8.893,1.645,12.844,2.633c3.951,0.986,7.38,2.361,10.292,4.115
				c2.905,1.76,5.186,4.009,6.83,6.751c1.648,2.747,2.47,6.149,2.47,10.207c0,3.623-0.795,6.999-2.387,10.128
				c-1.592,3.13-3.841,5.791-6.75,7.987c-2.91,2.194-6.396,3.924-10.455,5.185c-4.064,1.263-8.563,1.894-13.502,1.894
				c-3.623,0-7.107-0.469-10.454-1.4c-3.353-0.929-6.423-2.304-9.22-4.114c-2.802-1.813-5.216-4.034-7.246-6.669
				c-2.033-2.637-3.599-5.597-4.692-8.891c-0.658-1.206-0.493-2.416,0.495-3.624c0.655-0.986,1.698-1.479,3.128-1.479h11.688
				c1.317,0,2.414,0.493,3.293,1.479c1.865,2.745,4.059,4.61,6.587,5.599c2.525,0.988,4.993,1.481,7.41,1.481
				c3.842,0,6.939-0.548,9.301-1.647c2.36-1.094,3.542-2.688,3.542-4.774c0-1.095-0.222-2.057-0.66-2.881
				c-0.439-0.822-1.235-1.563-2.385-2.224c-1.154-0.656-2.775-1.233-4.861-1.727c-2.083-0.495-4.72-1.015-7.9-1.563
				c-2.747-0.438-5.821-1.072-9.223-1.896c-3.402-0.822-6.585-2.059-9.547-3.703c-2.966-1.646-5.435-3.813-7.411-6.504
				c-1.976-2.691-2.962-6.12-2.962-10.29c0-2.966,0.655-5.9,1.975-8.809c1.317-2.907,3.236-5.517,5.762-7.82
				c2.524-2.307,5.625-4.172,9.303-5.6c3.679-1.426,7.93-2.141,12.761-2.141c7.574,0,14.05,1.675,19.429,5.022
				c5.379,3.349,9.274,7.877,11.692,13.583c0.329,1.318,0.107,2.47-0.659,3.456c-0.222,0.55-0.658,0.988-1.318,1.319
				c-0.661,0.327-1.316,0.495-1.975,0.495h-11.855c-0.657,0-1.291-0.168-1.894-0.495c-0.604-0.331-1.182-0.77-1.729-1.319
				c-0.881-1.317-2.416-2.386-4.609-3.209c-2.199-0.824-4.558-1.288-7.081-1.399c-2.197-0.107-3.952,0-5.268,0.33
				c-1.317,0.328-2.333,0.822-3.048,1.481c-0.714,0.659-1.179,1.4-1.398,2.222c-0.221,0.823-0.33,1.563-0.33,2.222
				c0,1.87,0.795,3.188,2.389,3.952C-4065.215,1025.556-4062.006,1026.435-4057.176,1027.423z"/>
			<path fill="#231F20" d="M-3981.766,1027.423c4.612,0.768,8.892,1.645,12.844,2.633c3.95,0.986,7.381,2.361,10.29,4.115
				c2.907,1.76,5.187,4.009,6.833,6.751c1.646,2.747,2.469,6.149,2.469,10.207c0,3.623-0.796,6.999-2.386,10.128
				c-1.594,3.13-3.843,5.791-6.752,7.987c-2.908,2.194-6.395,3.924-10.454,5.185c-4.063,1.263-8.564,1.894-13.503,1.894
				c-3.621,0-7.106-0.469-10.454-1.4c-3.351-0.929-6.423-2.304-9.22-4.114c-2.8-1.813-5.214-4.034-7.246-6.669
				c-2.032-2.637-3.597-5.597-4.69-8.891c-0.66-1.206-0.495-2.416,0.493-3.624c0.657-0.986,1.699-1.479,3.126-1.479h11.69
				c1.319,0,2.415,0.493,3.293,1.479c1.865,2.745,4.06,4.61,6.587,5.599c2.523,0.988,4.993,1.481,7.409,1.481
				c3.843,0,6.94-0.548,9.302-1.647c2.358-1.094,3.542-2.688,3.542-4.774c0-1.095-0.22-2.057-0.66-2.881
				c-0.44-0.822-1.235-1.563-2.385-2.224c-1.153-0.656-2.775-1.233-4.86-1.727c-2.084-0.495-4.72-1.015-7.902-1.563
				c-2.744-0.438-5.818-1.072-9.22-1.896c-3.402-0.822-6.588-2.059-9.549-3.703c-2.964-1.646-5.433-3.813-7.412-6.504
				c-1.973-2.691-2.961-6.12-2.961-10.29c0-2.966,0.657-5.9,1.976-8.809c1.317-2.907,3.235-5.517,5.761-7.82
				c2.525-2.307,5.626-4.172,9.303-5.6c3.677-1.426,7.931-2.141,12.761-2.141c7.576,0,14.049,1.675,19.431,5.022
				c5.377,3.349,9.274,7.877,11.69,13.583c0.327,1.318,0.105,2.47-0.659,3.456c-0.222,0.55-0.658,0.988-1.318,1.319
				c-0.659,0.327-1.314,0.495-1.975,0.495h-11.854c-0.66,0-1.292-0.168-1.895-0.495c-0.604-0.331-1.18-0.77-1.729-1.319
				c-0.88-1.317-2.416-2.386-4.608-3.209c-2.198-0.824-4.558-1.288-7.082-1.399c-2.197-0.107-3.951,0-5.268,0.33
				c-1.318,0.328-2.335,0.822-3.047,1.481c-0.715,0.659-1.18,1.4-1.398,2.222c-0.222,0.823-0.33,1.563-0.33,2.222
				c0,1.87,0.796,3.188,2.388,3.952C-3989.808,1025.556-3986.595,1026.435-3981.766,1027.423z"/>
			<path fill="#231F20" d="M-3805.564,1075.665h-15.313c-0.552,0-1.045-0.221-1.483-0.66c-0.438-0.438-0.713-0.876-0.82-1.316
				l-9.88-62.896c0-0.436-0.221-0.714-0.657-0.822c-0.441-0.107-0.77,0.056-0.988,0.493l-29.803,65.529
				c-0.44,0.878-1.099,1.317-1.976,1.317h-2.965c-0.879,0-1.539-0.439-1.976-1.317c-0.11-0.11-0.222-0.276-0.329-0.494
				c-0.111-0.219-0.438-0.958-0.986-2.223c-0.551-1.261-1.4-3.181-2.554-5.763c-1.15-2.576-2.827-6.282-5.021-11.114
				c-2.2-4.827-4.971-10.947-8.316-18.358c-3.348-7.408-7.438-16.6-12.267-27.577c-0.22-0.438-0.551-0.601-0.987-0.493
				c-0.438,0.108-0.717,0.387-0.823,0.822l-10.207,63.06c-0.111,0.441-0.359,0.852-0.743,1.235
				c-0.387,0.386-0.851,0.578-1.398,0.578h-14.983c-0.551,0-1.099-0.303-1.646-0.905c-0.552-0.604-0.715-1.291-0.493-2.061
				l19.265-112.124c0.219-1.207,0.93-1.813,2.14-1.813h4.772c0.988,0,1.702,0.387,2.142,1.152l34.907,78.701
				c0.548,0.988,1.153,0.988,1.809,0c5.819-13.061,10.757-24.092,14.82-33.092c4.06-9,7.381-16.409,9.962-22.229
				c2.579-5.816,4.583-10.291,6.01-13.419c1.426-3.129,2.469-5.433,3.127-6.916c0.659-1.481,1.071-2.33,1.236-2.553
				c0.164-0.217,0.245-0.382,0.245-0.493c0.331-0.766,1.043-1.152,2.142-1.152h4.61c1.207,0,1.92,0.605,2.14,1.813
				c2.413,14.051,4.555,26.425,6.422,37.128c1.864,10.702,3.458,20.004,4.775,27.905c1.317,7.904,2.441,14.547,3.376,19.924
				c0.932,5.379,1.728,9.825,2.387,13.337l2.469,14.161C-3803.094,1074.784-3803.812,1075.665-3805.564,1075.665z"/>
			<path fill="#231F20" d="M-3713.643,1071.548c0,1.209-0.41,2.197-1.234,2.964c-0.824,0.768-1.84,1.153-3.049,1.153h-10.864
				c-1.21,0-2.224-0.386-3.045-1.153c-0.822-0.767-1.237-1.755-1.237-2.964v-15.807c0-1.978,0-3.924,0-5.847
				c0-1.92,0.027-3.674,0.084-5.268c0.053-1.589,0.083-2.883,0.083-3.869c0-0.988,0-1.536,0-1.646c0-5.049-0.988-9.246-2.966-12.598
				c-1.975-3.346-4.772-6.007-8.396-7.984c-2.635-1.424-5.38-2.275-8.233-2.551c-2.855-0.271-5.598-0.026-8.231,0.742
				c-2.634,0.768-5.08,2.004-7.326,3.703c-2.252,1.703-4.093,3.813-5.516,6.339c-2.199,3.733-2.992,7.713-2.39,11.937
				c0.604,4.227,2.113,8.015,4.527,11.361c2.415,3.349,5.57,5.873,9.468,7.572c3.896,1.703,8.093,1.896,12.596,0.578
				c1.098-0.328,2.03-0.245,2.8,0.248c0.767,0.493,1.426,1.178,1.973,2.057l4.449,12.184c0.329,0.881-0.059,1.539-1.154,1.978
				c-5.928,1.975-11.665,2.688-17.205,2.14c-5.543-0.553-10.596-2.032-15.148-4.446c-4.554-2.411-8.508-5.597-11.854-9.549
				c-3.348-3.952-5.82-8.341-7.411-13.172c-1.59-4.827-2.219-9.933-1.892-15.313c0.328-5.379,1.865-10.755,4.607-16.136
				c2.416-4.61,5.71-8.561,9.88-11.854c4.172-3.293,8.729-5.68,13.667-7.161c4.941-1.482,9.986-1.948,15.148-1.4
				c5.158,0.552,9.932,2.361,14.325,5.434c0.766,0.88,1.508,1.209,2.223,0.987c0.713-0.219,1.07-0.932,1.07-2.14
				c0-1.096,0.41-2.084,1.236-2.964c0.822-0.877,1.782-1.317,2.88-1.317h11.852c1.209,0,2.225,0.44,3.049,1.317
				c0.824,0.88,1.234,1.868,1.234,2.964V1071.548z"/>
			<path fill="#231F20" d="M-3624.562,999.186c0.274,0.822,0.191,1.621-0.245,2.387l-30.79,29.965
				c-0.658,0.658-0.716,1.375-0.165,2.141c2.635,3.292,5.378,6.751,8.233,10.373c2.853,3.625,5.597,7.161,8.231,10.62
				c2.635,3.457,5.104,6.697,7.409,9.716c2.307,3.021,4.281,5.623,5.928,7.819c0.437,0.77,0.52,1.539,0.248,2.306
				c-0.278,0.768-0.908,1.153-1.895,1.153h-17.288c-1.099,0-1.868-0.331-2.307-0.988l-28.979-39.188v37.87
				c0,0.553-0.245,1.07-0.738,1.563c-0.495,0.493-1.018,0.743-1.565,0.743h-14.325c-0.66,0-1.236-0.25-1.729-0.743
				c-0.495-0.493-0.739-1.011-0.739-1.563V961.562c0-0.658,0.244-1.234,0.739-1.729c0.493-0.494,1.069-0.741,1.729-0.741h14.325
				c0.548,0,1.07,0.247,1.565,0.741c0.493,0.494,0.738,1.07,0.738,1.729v68.165l30.791-29.966c0.549-0.437,1.096-0.849,1.648-1.234
				c0.546-0.383,1.204-0.577,1.973-0.577h15.479C-3625.412,997.949-3624.837,998.361-3624.562,999.186z"/>
			<path fill="#231F20" d="M-3577.553,997.62c5.27,0,10.291,0.963,15.066,2.882c4.776,1.922,8.917,4.721,12.432,8.397
				c3.511,3.68,6.227,8.26,8.15,13.749c1.92,5.489,2.771,11.853,2.551,19.096c0,1.099-0.164,1.868-0.493,2.307
				c-0.331,0.438-1.046,0.659-2.14,0.659c-9.441,0.112-18.004,0.164-25.687,0.164h-29.474c-0.109,0-0.221,0.056-0.329,0.163v0.168
				c0.108,0.551,0.521,1.592,1.236,3.126c0.711,1.539,1.837,3.157,3.374,4.856c1.537,1.705,3.564,3.294,6.094,4.778
				c2.523,1.481,5.704,2.442,9.549,2.879c3.295,0.44,6.257,0.44,8.89,0c2.635-0.437,4.967-1.07,6.999-1.893
				c2.03-0.824,3.786-1.813,5.269-2.964c1.481-1.153,2.718-2.277,3.706-3.378c0.437-0.434,0.932-0.493,1.48-0.162l8.893,7.574
				c0.438,0.44,0.658,0.822,0.658,1.152c0,0.439-0.111,0.77-0.331,0.987c-0.879,0.988-2.223,2.363-4.033,4.116
				c-1.811,1.758-4.172,3.459-7.079,5.104c-2.911,1.648-6.396,3.047-10.456,4.2c-4.062,1.15-8.727,1.672-13.995,1.564
				c-5.27-0.111-10.291-1.235-15.066-3.378c-4.773-2.14-8.919-4.991-12.432-8.561c-3.514-3.566-6.313-7.74-8.396-12.515
				c-2.087-4.773-3.128-9.903-3.128-15.393s1.011-10.645,3.045-15.479c2.029-4.826,4.803-9.026,8.316-12.596
				c3.51-3.563,7.627-6.391,12.349-8.478C-3587.816,998.664-3582.82,997.62-3577.553,997.62z M-3556.972,1028.738
				c0.11-0.107,0.165-0.273,0.165-0.495c-0.549-1.315-1.291-2.823-2.223-4.525c-0.935-1.702-2.195-3.294-3.786-4.776
				c-1.594-1.482-3.569-2.741-5.928-3.787c-2.361-1.04-5.185-1.563-8.479-1.563c-3.404,0-6.284,0.635-8.645,1.895
				c-2.362,1.263-4.282,2.716-5.764,4.362c-1.479,1.647-2.58,3.294-3.293,4.938c-0.715,1.648-1.179,2.802-1.398,3.457v0.495
				c0.107,0.111,0.22,0.165,0.327,0.165h38.53C-3557.134,1028.903-3556.972,1028.85-3556.972,1028.738z"/>
			<path fill="#231F20" d="M-3523.811,1000.42c0-0.659,0.246-1.207,0.739-1.647c0.495-0.436,1.017-0.657,1.564-0.657h8.232
				c1.427,0,2.198,0.549,2.306,1.646l0.328,2.964c0.11,0.769,0.193,1.51,0.25,2.223c0.053,0.716,0.082,1.127,0.082,1.235
				c0.219,0.987,0.659,1.152,1.315,0.493c0.659-0.987,1.565-2.083,2.718-3.293c1.152-1.206,2.523-2.329,4.117-3.375
				c1.589-1.041,3.345-1.893,5.268-2.552c1.92-0.659,4.035-0.987,6.339-0.987c1.426,0,2.936,0.11,4.527,0.328
				c1.591,0.222,3.019,0.577,4.281,1.07c1.261,0.494,2.249,1.1,2.964,1.812c0.714,0.715,0.85,1.51,0.412,2.388l-6.093,10.865
				c-0.659,1.1-1.975,1.318-3.949,0.659c-2.747-0.875-5.188-0.932-7.329-0.163s-3.926,1.976-5.351,3.622
				c-1.429,1.645-2.497,3.567-3.211,5.761c-0.715,2.197-1.07,4.339-1.07,6.421v44.127c0,1.54-1.044,2.307-3.128,2.307h-13.009
				c-0.548,0-1.069-0.25-1.564-0.743c-0.493-0.493-0.739-1.011-0.739-1.563V1000.42z"/>
		</g>
	</g>
</g>
<text transform="matrix(1 0 0 1 -4051.9854 1180.4492)" fill="#3397E1" font-family="'Chivo-Regular'" font-size="95.6527">Ambassador</text>
<path fill="#FFFFFF" d="M-3098.459-29.524c-73.146,0-132.444,58.891-132.444,131.533c0,42.863,20.655,80.928,52.609,104.941
	l0.03-109.803c1.039-40.074,35.979-74.855,78.957-74.855c43.633,0,79.075,35.088,79.075,77.902c0,42.818-34.83,77.906-78.463,77.906
	c-7.268,0-15.373-0.978-20.373-2.782v-32.334c5,3.005,12.834,4.747,20.322,4.747c26.459,0,47.58-20.994,47.58-46.957
	c0-25.961-21.471-46.9-47.931-46.9c-26.456,0-47.774,21.265-47.774,47.227l-0.008,123.321c15.011,5.862,31.325,9.119,48.433,9.119
	c73.147,0,132.437-58.89,132.437-131.532S-3025.313-29.524-3098.459-29.524z"/>
<g>
	<g>
		<path fill="#FFFFFF" d="M-2891.795,18.175c3.934,0,7.67,0.768,11.209,2.297c3.54,1.529,6.643,3.583,9.309,6.16
			c2.665,2.579,4.763,5.617,6.292,9.11c1.528,3.497,2.295,7.212,2.295,11.145c0,4.02-0.767,7.8-2.295,11.339
			c-1.529,3.539-3.627,6.642-6.292,9.308c-2.666,2.666-5.747,4.764-9.242,6.293c-3.496,1.53-7.21,2.293-11.143,2.293h-14.028
			c-0.524,0-0.786,0.262-0.786,0.786v31.201c0,0.439-0.197,0.852-0.59,1.245c-0.393,0.393-0.809,0.591-1.245,0.591h-12.062
			c-0.523,0-0.962-0.198-1.311-0.591c-0.35-0.394-0.523-0.806-0.523-1.245V20.012c0-0.437,0.174-0.853,0.523-1.245
			c0.349-0.395,0.787-0.592,1.311-0.592H-2891.795z M-2892.973,61.306c1.92,0,3.756-0.369,5.504-1.113
			c1.748-0.742,3.279-1.77,4.589-3.081c1.312-1.312,2.36-2.84,3.146-4.587c0.787-1.748,1.181-3.672,1.181-5.77
			c0-1.921-0.394-3.713-1.181-5.375c-0.786-1.658-1.835-3.081-3.146-4.26c-1.31-1.181-2.841-2.119-4.589-2.819
			c-1.748-0.699-3.584-1.05-5.504-1.05h-12.718c-0.524,0-0.786,0.264-0.786,0.787v26.48c0,0.525,0.262,0.787,0.786,0.787H-2892.973z
			"/>
		<path fill="#FFFFFF" d="M-2851.889,50.032c0-0.524,0.198-0.961,0.591-1.312c0.393-0.347,0.807-0.522,1.246-0.522h6.555
			c1.134,0,1.746,0.437,1.834,1.31l0.263,2.36c0.087,0.611,0.151,1.201,0.196,1.77c0.043,0.569,0.066,0.896,0.066,0.982
			c0.173,0.787,0.523,0.918,1.049,0.394c0.523-0.786,1.245-1.659,2.162-2.622c0.918-0.961,2.01-1.854,3.277-2.688
			c1.266-0.828,2.666-1.506,4.195-2.031c1.527-0.525,3.211-0.786,5.048-0.786c1.135,0,2.337,0.088,3.604,0.261
			c1.267,0.177,2.402,0.46,3.41,0.853c1.002,0.394,1.789,0.876,2.357,1.442c0.568,0.569,0.678,1.202,0.328,1.901l-4.85,8.65
			c-0.525,0.876-1.573,1.05-3.147,0.524c-2.186-0.695-4.128-0.741-5.833-0.129c-1.704,0.611-3.125,1.572-4.261,2.884
			c-1.136,1.31-1.989,2.84-2.556,4.587c-0.57,1.749-0.853,3.454-0.853,5.112v35.134c0,1.226-0.831,1.836-2.491,1.836h-10.355
			c-0.439,0-0.854-0.198-1.246-0.591c-0.393-0.394-0.591-0.806-0.591-1.245V50.032z"/>
		<path fill="#FFFFFF" d="M-2757.929,61.109c2.184,2.798,2.666,4.241,3.892,7.603c1.222,3.364,1.835,6.882,1.835,10.554
			c0,4.371-0.832,8.478-2.491,12.321c-1.661,3.849-3.933,7.19-6.816,10.03c-2.884,2.842-6.272,5.092-10.159,6.752
			c-3.891,1.657-8.063,2.49-12.521,2.49c-3.846,0-7.561-0.833-11.144-2.49c-3.584-1.66-6.729-3.91-9.438-6.752
			c-2.71-2.84-4.874-6.182-6.489-10.03c-1.618-3.844-2.426-7.95-2.426-12.321c0-6.031,1.377-11.405,4.129-16.124
			c2.754-4.719,6.294-8.41,10.619-11.077c4.327-2.665,9.155-4.13,14.486-4.392c5.33-0.263,10.574,1.006,15.731,3.801
			c0.874,0.439,8.748,6.104,11.128,10.164c0.786,1.25-10.57,10.626-10.954,9.922c-3.221-5.904-7.733-7.586-8.432-8.025
			c-2.099-0.871-4.502-1.311-7.211-1.311c-2.185,0-4.195,0.439-6.029,1.311c-1.837,0.875-3.433,2.076-4.786,3.605
			c-1.356,1.529-2.404,3.341-3.146,5.44c-0.743,2.099-1.114,4.325-1.114,6.686c0,4.896,1.419,8.936,4.26,12.126
			c2.84,3.191,6.443,4.785,10.815,4.785c2.446,0,4.74-0.415,6.883-1.244c2.141-0.832,3.999-2.011,5.57-3.541
			c1.574-1.528,2.819-3.32,3.737-5.374c0.917-2.053,1.376-4.304,1.376-6.752c0-1.572-0.241-3.124-0.721-4.652
			c-0.481-1.529-1.07-2.906-1.77-4.133c-0.7-1.484-0.393-2.75,0.917-3.8l7.867-7.08
			C-2759.894,59.165-2758.278,60.761-2757.929,61.109z"/>
		<path fill="#FFFFFF" d="M-2697.931,104.044c0.525,0.698,0.634,1.374,0.327,2.031c-0.307,0.654-0.811,1.159-1.507,1.506
			c-1.836,0.877-3.913,1.641-6.228,2.296c-2.316,0.654-5.046,0.982-8.192,0.982c-3.848,0-7.563-0.833-11.145-2.49
			c-3.584-1.66-6.73-3.91-9.438-6.752c-2.71-2.84-4.873-6.182-6.489-10.03c-1.618-3.844-2.425-7.95-2.425-12.321v-0.132v-0.129
			c0-4.371,0.807-8.478,2.425-12.324c1.616-3.843,3.779-7.188,6.489-10.028c2.708-2.839,5.854-5.091,9.438-6.751
			c3.582-1.66,7.297-2.491,11.145-2.491c4.894,0,9.701,1.095,14.42,3.278c0.436,0.35,0.852,0.721,1.245,1.113
			s0.46,0.983,0.198,1.771l-4.721,8.65c-0.438,0.7-1.029,1.202-1.771,1.508c-0.743,0.307-1.464,0.242-2.162-0.197
			c-2.099-0.871-4.503-1.311-7.21-1.311c-2.099,0-4.064,0.439-5.9,1.311c-1.835,0.875-3.431,2.076-4.785,3.605
			c-1.355,1.529-2.424,3.323-3.212,5.375c-0.785,2.055-1.179,4.261-1.179,6.619c0,2.359,0.394,4.591,1.179,6.687
			c0.788,2.098,1.856,3.889,3.212,5.374c1.354,1.487,2.95,2.668,4.785,3.54c1.836,0.875,3.802,1.312,5.9,1.312
			c2.707,0,5.111-0.437,7.21-1.312c0.698-0.436,1.419-0.502,2.162-0.196c0.741,0.306,1.333,0.809,1.771,1.508L-2697.931,104.044z"/>
		<path fill="#FFFFFF" d="M-2661.358,47.804c4.197,0,8.195,0.766,11.996,2.294c3.802,1.53,7.102,3.759,9.898,6.687
			c2.795,2.93,4.958,6.576,6.489,10.946c1.527,4.371,2.204,9.438,2.032,15.204c0,0.875-0.133,1.488-0.394,1.837
			c-0.263,0.349-0.832,0.524-1.705,0.524c-7.518,0.09-14.333,0.131-20.451,0.131h-23.466c-0.086,0-0.176,0.045-0.262,0.13v0.134
			c0.086,0.438,0.414,1.268,0.984,2.489c0.566,1.226,1.462,2.514,2.686,3.866c1.224,1.357,2.84,2.623,4.851,3.805
			c2.011,1.18,4.543,1.944,7.605,2.292c2.62,0.351,4.98,0.351,7.078,0c2.097-0.348,3.954-0.852,5.569-1.507
			c1.617-0.656,3.017-1.443,4.196-2.359c1.182-0.918,2.166-1.813,2.951-2.689c0.348-0.346,0.74-0.393,1.179-0.129l7.079,6.03
			c0.349,0.351,0.525,0.654,0.525,0.917c0,0.351-0.088,0.613-0.262,0.786c-0.702,0.787-1.771,1.882-3.212,3.277
			c-1.442,1.4-3.323,2.755-5.638,4.063c-2.317,1.313-5.093,2.426-8.323,3.345c-3.235,0.916-6.95,1.331-11.144,1.245
			c-4.195-0.088-8.193-0.983-11.997-2.689c-3.802-1.703-7.102-3.974-9.897-6.815c-2.797-2.84-5.027-6.163-6.686-9.965
			c-1.661-3.8-2.49-7.885-2.49-12.255c0-4.371,0.807-8.476,2.425-12.324c1.616-3.843,3.822-7.188,6.621-10.029
			c2.795-2.837,6.074-5.088,9.832-6.75C-2669.529,48.635-2665.553,47.804-2661.358,47.804z M-2644.971,72.58
			c0.087-0.086,0.131-0.218,0.131-0.395c-0.437-1.048-1.027-2.248-1.77-3.604c-0.742-1.354-1.748-2.622-3.015-3.803
			c-1.269-1.181-2.841-2.183-4.72-3.015c-1.88-0.828-4.13-1.246-6.75-1.246c-2.711,0-5.005,0.506-6.883,1.51
			c-1.882,1.005-3.411,2.162-4.59,3.473c-1.18,1.312-2.055,2.623-2.621,3.932c-0.569,1.313-0.94,2.231-1.113,2.753v0.395
			c0.084,0.088,0.173,0.131,0.261,0.131h30.676C-2645.101,72.711-2644.971,72.668-2644.971,72.58z"/>
		<path fill="#FFFFFF" d="M-2592.536,71.532c3.672,0.611,7.08,1.31,10.227,2.097c3.146,0.785,5.876,1.88,8.194,3.276
			c2.313,1.401,4.129,3.191,5.438,5.375c1.313,2.188,1.966,4.896,1.966,8.127c0,2.885-0.633,5.572-1.9,8.063
			c-1.268,2.492-3.058,4.611-5.374,6.359c-2.317,1.747-5.092,3.125-8.324,4.128c-3.236,1.006-6.818,1.508-10.751,1.508
			c-2.884,0-5.658-0.373-8.323-1.114c-2.669-0.74-5.114-1.835-7.341-3.276c-2.23-1.443-4.152-3.212-5.77-5.31
			c-1.618-2.1-2.865-4.456-3.735-7.079c-0.524-0.96-0.394-1.924,0.394-2.885c0.521-0.786,1.353-1.179,2.49-1.179h9.307
			c1.049,0,1.922,0.393,2.622,1.179c1.485,2.186,3.231,3.67,5.244,4.457c2.011,0.787,3.976,1.18,5.9,1.18
			c3.059,0,5.525-0.437,7.405-1.312c1.879-0.871,2.82-2.14,2.82-3.802c0-0.871-0.177-1.638-0.525-2.294
			c-0.351-0.654-0.984-1.244-1.899-1.771c-0.919-0.522-2.21-0.981-3.87-1.374c-1.659-0.395-3.758-0.808-6.29-1.245
			c-2.188-0.349-4.636-0.854-7.344-1.509c-2.709-0.655-5.243-1.64-7.602-2.949c-2.361-1.311-4.326-3.036-5.9-5.178
			c-1.573-2.144-2.358-4.873-2.358-8.193c0-2.361,0.521-4.698,1.572-7.013c1.049-2.315,2.577-4.393,4.588-6.227
			c2.01-1.837,4.479-3.322,7.406-4.459c2.93-1.135,6.313-1.704,10.16-1.704c6.031,0,11.187,1.333,15.47,3.999
			c4.282,2.666,7.384,6.271,9.31,10.814c0.262,1.05,0.085,1.967-0.525,2.752c-0.177,0.438-0.523,0.787-1.05,1.05
			c-0.526,0.261-1.048,0.395-1.572,0.395h-9.438c-0.523,0-1.028-0.134-1.508-0.395c-0.481-0.263-0.941-0.612-1.377-1.05
			c-0.702-1.049-1.924-1.899-3.67-2.556c-1.751-0.655-3.629-1.025-5.639-1.114c-1.749-0.085-3.146,0-4.193,0.264
			c-1.05,0.261-1.858,0.654-2.427,1.179c-0.568,0.525-0.938,1.115-1.113,1.77c-0.176,0.655-0.264,1.245-0.264,1.769
			c0,1.489,0.633,2.538,1.902,3.146C-2598.937,70.046-2596.382,70.745-2592.536,71.532z"/>
		<path fill="#FFFFFF" d="M-2532.494,71.532c3.672,0.611,7.079,1.31,10.226,2.097c3.146,0.785,5.877,1.88,8.193,3.276
			c2.314,1.401,4.13,3.191,5.44,5.375c1.311,2.188,1.966,4.896,1.966,8.127c0,2.885-0.634,5.572-1.899,8.063
			c-1.27,2.492-3.06,4.611-5.376,6.359c-2.315,1.747-5.092,3.125-8.324,4.128c-3.235,1.006-6.818,1.508-10.751,1.508
			c-2.883,0-5.658-0.373-8.323-1.114c-2.668-0.74-5.114-1.835-7.341-3.276c-2.229-1.443-4.151-3.212-5.77-5.31
			c-1.618-2.1-2.863-4.456-3.734-7.079c-0.525-0.96-0.395-1.924,0.393-2.885c0.523-0.786,1.353-1.179,2.489-1.179h9.308
			c1.051,0,1.923,0.393,2.622,1.179c1.485,2.186,3.232,3.67,5.244,4.457c2.01,0.787,3.976,1.18,5.899,1.18
			c3.06,0,5.526-0.437,7.406-1.312c1.878-0.871,2.82-2.14,2.82-3.802c0-0.871-0.175-1.638-0.526-2.294
			c-0.351-0.654-0.983-1.244-1.898-1.771c-0.918-0.522-2.21-0.981-3.87-1.374c-1.659-0.395-3.758-0.808-6.291-1.245
			c-2.186-0.349-4.633-0.854-7.341-1.509c-2.709-0.655-5.246-1.64-7.604-2.949c-2.359-1.311-4.325-3.036-5.901-5.178
			c-1.57-2.144-2.357-4.873-2.357-8.193c0-2.361,0.523-4.698,1.573-7.013c1.049-2.315,2.576-4.393,4.587-6.227
			c2.011-1.837,4.479-3.322,7.406-4.459c2.928-1.135,6.314-1.704,10.16-1.704c6.032,0,11.186,1.333,15.471,3.999
			c4.281,2.666,7.385,6.271,9.309,10.814c0.26,1.05,0.084,1.967-0.525,2.752c-0.177,0.438-0.524,0.787-1.05,1.05
			c-0.524,0.261-1.046,0.395-1.572,0.395h-9.438c-0.525,0-1.028-0.134-1.508-0.395c-0.481-0.263-0.939-0.612-1.377-1.05
			c-0.701-1.049-1.924-1.899-3.67-2.556c-1.75-0.655-3.629-1.025-5.639-1.114c-1.749-0.085-3.146,0-4.194,0.264
			c-1.049,0.261-1.858,0.654-2.426,1.179c-0.568,0.525-0.938,1.115-1.113,1.77c-0.177,0.655-0.263,1.245-0.263,1.769
			c0,1.489,0.634,2.538,1.901,3.146C-2538.897,70.046-2536.339,70.745-2532.494,71.532z"/>
		<path fill="#FFFFFF" d="M-2392.203,109.942h-12.191c-0.439,0-0.832-0.175-1.181-0.525c-0.35-0.349-0.568-0.697-0.653-1.048
			l-7.866-50.078c0-0.347-0.176-0.568-0.523-0.655c-0.352-0.085-0.613,0.045-0.787,0.393l-23.729,52.175
			c-0.352,0.699-0.875,1.049-1.573,1.049h-2.36c-0.7,0-1.226-0.35-1.573-1.049c-0.088-0.088-0.177-0.22-0.263-0.394
			c-0.088-0.174-0.349-0.763-0.785-1.77c-0.438-1.004-1.114-2.532-2.033-4.588c-0.916-2.052-2.251-5.002-3.997-8.85
			c-1.752-3.843-3.958-8.716-6.622-14.617c-2.665-5.898-5.921-13.216-9.767-21.957c-0.175-0.348-0.438-0.478-0.786-0.393
			c-0.349,0.087-0.57,0.309-0.655,0.655l-8.127,50.208c-0.088,0.352-0.286,0.678-0.592,0.983c-0.308,0.308-0.677,0.46-1.113,0.46
			h-11.93c-0.438,0-0.875-0.24-1.311-0.721c-0.439-0.48-0.569-1.027-0.393-1.641l15.338-89.273c0.175-0.961,0.74-1.442,1.704-1.442
			h3.8c0.787,0,1.355,0.308,1.705,0.917l27.793,62.662c0.437,0.787,0.919,0.787,1.44,0c4.633-10.398,8.564-19.182,11.8-26.348
			c3.232-7.166,5.877-13.064,7.932-17.698c2.054-4.631,3.649-8.194,4.785-10.685c1.135-2.49,1.966-4.325,2.489-5.506
			c0.525-1.18,0.854-1.855,0.984-2.033c0.131-0.172,0.195-0.304,0.195-0.393c0.264-0.609,0.83-0.917,1.705-0.917h3.671
			c0.961,0,1.528,0.481,1.703,1.442c1.922,11.188,3.627,21.04,5.113,29.563c1.484,8.521,2.754,15.927,3.803,22.218
			c1.049,6.293,1.943,11.582,2.688,15.863c0.742,4.282,1.376,7.822,1.9,10.619l1.966,11.274
			C-2390.235,109.241-2390.807,109.942-2392.203,109.942z"/>
		<path fill="#FFFFFF" d="M-2319.015,106.665c0,0.962-0.326,1.749-0.982,2.359c-0.656,0.611-1.465,0.918-2.428,0.918h-8.65
			c-0.963,0-1.771-0.307-2.424-0.918c-0.655-0.61-0.985-1.397-0.985-2.359V94.079c0-1.574,0-3.124,0-4.654
			c0-1.529,0.021-2.926,0.067-4.194c0.042-1.266,0.065-2.296,0.065-3.081c0-0.787,0-1.223,0-1.311c0-4.02-0.787-7.362-2.361-10.03
			c-1.572-2.664-3.8-4.783-6.685-6.357c-2.098-1.134-4.283-1.812-6.556-2.031c-2.273-0.216-4.456-0.021-6.554,0.592
			c-2.097,0.61-4.045,1.595-5.833,2.948c-1.793,1.355-3.259,3.036-4.392,5.047c-1.751,2.973-2.382,6.141-1.902,9.504
			c0.48,3.365,1.683,6.381,3.604,9.046c1.923,2.666,4.436,4.676,7.538,6.029c3.103,1.355,6.443,1.51,10.029,0.46
			c0.874-0.262,1.616-0.195,2.229,0.197c0.61,0.393,1.136,0.938,1.571,1.638l3.542,9.7c0.262,0.702-0.047,1.226-0.919,1.575
			c-4.72,1.572-9.288,2.14-13.698,1.703c-4.414-0.439-8.437-1.618-12.062-3.54c-3.626-1.92-6.774-4.456-9.438-7.603
			c-2.666-3.146-4.635-6.642-5.901-10.487c-1.266-3.844-1.767-7.908-1.506-12.192c0.262-4.282,1.485-8.563,3.668-12.847
			c1.924-3.672,4.547-6.816,7.867-9.439c3.321-2.621,6.949-4.521,10.881-5.701c3.935-1.18,7.951-1.551,12.062-1.115
			c4.107,0.439,7.908,1.881,11.406,4.326c0.609,0.701,1.2,0.963,1.77,0.786c0.567-0.174,0.852-0.741,0.852-1.703
			c0-0.872,0.327-1.659,0.984-2.36c0.655-0.698,1.419-1.049,2.293-1.049h9.437c0.963,0,1.771,0.351,2.428,1.049
			c0.656,0.701,0.982,1.488,0.982,2.36V106.665z"/>
		<path fill="#FFFFFF" d="M-2248.088,49.05c0.219,0.654,0.152,1.291-0.195,1.9l-24.515,23.857c-0.524,0.524-0.57,1.096-0.132,1.705
			c2.098,2.621,4.282,5.375,6.556,8.259c2.271,2.887,4.456,5.702,6.554,8.456c2.098,2.752,4.063,5.332,5.899,7.735
			c1.836,2.405,3.408,4.478,4.72,6.226c0.348,0.613,0.413,1.226,0.197,1.836c-0.222,0.611-0.723,0.918-1.509,0.918h-13.765
			c-0.874,0-1.487-0.263-1.836-0.786l-23.073-31.202v30.152c0,0.439-0.195,0.852-0.588,1.245c-0.394,0.393-0.81,0.591-1.246,0.591
			h-11.406c-0.525,0-0.984-0.198-1.377-0.591c-0.394-0.394-0.588-0.806-0.588-1.245V19.093c0-0.523,0.194-0.982,0.588-1.375
			c0.393-0.395,0.852-0.591,1.377-0.591h11.406c0.437,0,0.853,0.196,1.246,0.591c0.393,0.393,0.588,0.852,0.588,1.375v54.273
			l24.516-23.858c0.438-0.348,0.873-0.676,1.313-0.983c0.436-0.305,0.959-0.459,1.571-0.459h12.323
			C-2248.765,48.065-2248.308,48.394-2248.088,49.05z"/>
		<path fill="#FFFFFF" d="M-2210.659,47.804c4.195,0,8.193,0.766,11.996,2.294c3.803,1.53,7.1,3.759,9.897,6.687
			c2.796,2.93,4.958,6.576,6.489,10.946c1.529,4.371,2.206,9.438,2.031,15.204c0,0.875-0.131,1.488-0.393,1.837
			c-0.264,0.349-0.833,0.524-1.704,0.524c-7.517,0.09-14.334,0.131-20.451,0.131h-23.467c-0.087,0-0.176,0.045-0.263,0.13v0.134
			c0.087,0.438,0.415,1.268,0.984,2.489c0.566,1.226,1.463,2.514,2.687,3.866c1.224,1.357,2.838,2.623,4.853,3.805
			c2.009,1.18,4.541,1.944,7.603,2.292c2.623,0.351,4.981,0.351,7.078,0c2.098-0.348,3.954-0.852,5.572-1.507
			c1.616-0.656,3.015-1.443,4.194-2.359c1.18-0.918,2.164-1.813,2.951-2.689c0.348-0.346,0.742-0.393,1.179-0.129l7.08,6.03
			c0.35,0.351,0.524,0.654,0.524,0.917c0,0.351-0.089,0.613-0.264,0.786c-0.699,0.787-1.77,1.882-3.211,3.277
			c-1.441,1.4-3.322,2.755-5.637,4.063c-2.317,1.313-5.093,2.426-8.325,3.345c-3.233,0.916-6.948,1.331-11.143,1.245
			c-4.196-0.088-8.194-0.983-11.996-2.689c-3.801-1.703-7.102-3.974-9.898-6.815c-2.797-2.84-5.025-6.163-6.685-9.965
			c-1.661-3.8-2.49-7.885-2.49-12.255c0-4.371,0.805-8.476,2.425-12.324c1.615-3.843,3.823-7.188,6.621-10.029
			c2.795-2.837,6.073-5.088,9.832-6.75C-2218.831,48.635-2214.854,47.804-2210.659,47.804z M-2194.272,72.58
			c0.088-0.086,0.131-0.218,0.131-0.395c-0.437-1.048-1.027-2.248-1.77-3.604c-0.744-1.354-1.748-2.622-3.015-3.803
			c-1.269-1.181-2.842-2.183-4.72-3.015c-1.88-0.828-4.128-1.246-6.751-1.246c-2.711,0-5.004,0.506-6.883,1.51
			c-1.881,1.005-3.409,2.162-4.589,3.473c-1.179,1.312-2.055,2.623-2.622,3.932c-0.569,1.313-0.938,2.231-1.113,2.753v0.395
			c0.085,0.088,0.175,0.131,0.261,0.131h30.678C-2194.401,72.711-2194.272,72.668-2194.272,72.58z"/>
		<path fill="#FFFFFF" d="M-2167.87,50.032c0-0.524,0.196-0.961,0.589-1.312c0.395-0.347,0.81-0.522,1.245-0.522h6.555
			c1.137,0,1.751,0.437,1.836,1.31l0.262,2.36c0.088,0.611,0.154,1.201,0.199,1.77c0.042,0.569,0.065,0.896,0.065,0.982
			c0.174,0.787,0.524,0.918,1.047,0.394c0.524-0.786,1.246-1.659,2.164-2.622c0.917-0.961,2.009-1.854,3.278-2.688
			c1.265-0.828,2.663-1.506,4.193-2.031c1.529-0.525,3.213-0.786,5.047-0.786c1.136,0,2.338,0.088,3.605,0.261
			c1.267,0.177,2.403,0.46,3.408,0.853c1.004,0.394,1.791,0.876,2.36,1.442c0.568,0.569,0.677,1.202,0.328,1.901l-4.852,8.65
			c-0.524,0.876-1.572,1.05-3.145,0.524c-2.187-0.695-4.131-0.741-5.835-0.129c-1.704,0.611-3.126,1.572-4.26,2.884
			c-1.138,1.31-1.988,2.84-2.557,4.587c-0.569,1.749-0.853,3.454-0.853,5.112v35.134c0,1.226-0.831,1.836-2.49,1.836h-10.358
			c-0.436,0-0.851-0.198-1.245-0.591c-0.393-0.394-0.589-0.806-0.589-1.245V50.032z"/>
	</g>
</g>
<g>
	<path fill="#FFFFFF" d="M-2877.569,173.29c0,6.499-1.931,11.508-5.79,15.026c-3.471,3.225-8.015,4.838-13.634,4.838
		c-6.256,0-11.191-1.856-14.807-5.571c-3.91-3.958-5.863-9.626-5.863-17.005v-6.598c0-7.329,1.953-12.997,5.863-17.005
		c3.665-3.713,8.6-5.57,14.807-5.57c5.717,0,10.311,1.661,13.78,4.984c3.763,3.518,5.644,8.527,5.644,15.025h-7.184
		c0-4.495-1.148-7.939-3.444-10.335c-2.102-2.101-5.034-3.151-8.796-3.151c-6.45,0-10.604,2.907-12.461,8.723
		c-0.685,2.052-1.025,4.496-1.025,7.329v6.598c0,8.112,2.662,13.146,7.988,15.1c1.661,0.636,3.445,0.952,5.352,0.952
		s3.628-0.256,5.168-0.77c1.539-0.513,2.846-1.307,3.921-2.382c2.394-2.394,3.592-5.791,3.592-10.188H-2877.569z"/>
	<path fill="#FFFFFF" d="M-2867.234,192.421v-52.775h6.89v52.775H-2867.234z"/>
	<path fill="#FFFFFF" d="M-2815.706,175.049c0,5.913-1.686,10.482-5.057,13.707c-3.079,2.932-7.136,4.398-12.168,4.398
		c-5.033,0-9.09-1.467-12.168-4.398c-3.371-3.225-5.058-7.794-5.058-13.707v-2.712c0-5.912,1.687-10.456,5.058-13.634
		c3.078-2.979,7.135-4.471,12.168-4.471c5.032,0,9.089,1.491,12.168,4.471c3.371,3.178,5.057,7.722,5.057,13.634V175.049z
		 M-2822.596,172.997c0-4.496-1.003-7.892-3.005-10.188c-1.76-2.053-4.203-3.079-7.33-3.079c-4.838,0-8.016,2.395-9.529,7.184
		c-0.538,1.711-0.807,3.738-0.807,6.084v1.393c0,4.496,1.002,7.892,3.006,10.188c1.759,2.052,4.202,3.078,7.33,3.078
		c4.838,0,8.014-2.419,9.528-7.257c0.537-1.66,0.807-3.664,0.807-6.01V172.997z"/>
	<path fill="#FFFFFF" d="M-2769.161,191.688c-1.467,0.978-3.006,1.467-4.619,1.467c-1.662,0-2.895-0.172-3.701-0.514
		c-0.807-0.341-1.479-0.806-2.016-1.393c-0.928-1.026-1.441-2.442-1.539-4.251c-1.906,2.785-4.617,4.667-8.137,5.644
		c-1.172,0.342-2.541,0.514-4.104,0.514c-1.613,0-3.227-0.257-4.838-0.771c-1.613-0.513-3.031-1.282-4.252-2.309
		c-2.541-2.296-3.812-5.595-3.812-9.896v-25.215h6.89v23.969c0,3.178,0.733,5.425,2.199,6.744c1.467,1.319,3.371,1.979,5.717,1.979
		c2.639,0,4.959-1.001,6.965-3.005c2.002-2.003,3.004-4.472,3.004-7.403v-22.283h6.891v30.126c0,0.929,0.207,1.589,0.623,1.979
		c0.414,0.392,0.891,0.586,1.43,0.586c1.123,0,2.223-0.341,3.299-1.026V191.688z"/>
	<path fill="#FFFFFF" d="M-2736.837,159.729v-20.084h6.89v52.775h-5.131c-0.245-0.928-0.563-2.639-0.953-5.131
		c-2.785,3.91-6.646,5.864-11.581,5.864c-4.447,0-8.015-1.563-10.701-4.691c-2.981-3.42-4.472-8.356-4.472-14.807v-0.806
		c0-5.912,1.417-10.556,4.251-13.928c2.639-3.126,6.279-4.69,10.922-4.69C-2742.971,154.232-2739.379,156.064-2736.837,159.729z
		 M-2755.896,173.729c0,7.33,1.881,11.753,5.645,13.268c1.173,0.439,2.467,0.659,3.885,0.659c6.401,0,9.603-4.642,9.603-13.927
		c0-7.378-1.906-11.801-5.718-13.267c-1.173-0.488-2.468-0.733-3.885-0.733c-3.03,0-5.327,1.002-6.89,3.005
		C-2755.016,165.032-2755.896,168.697-2755.896,173.729z"/>
	<path fill="#FFFFFF" d="M-2672.629,156.064l-10.628,36.356h-7.33l-14.366-50.283h7.696l10.628,37.896h0.44l10.701-37.896h6.964
		l10.628,37.896h0.439l10.702-37.896h6.963l-14.732,50.283h-7.33l-10.262-36.356H-2672.629z"/>
	<path fill="#FFFFFF" d="M-2602.409,175.049c0,5.913-1.686,10.482-5.058,13.707c-3.078,2.932-7.135,4.398-12.167,4.398
		c-5.034,0-9.09-1.467-12.168-4.398c-3.372-3.225-5.058-7.794-5.058-13.707v-2.712c0-5.912,1.686-10.456,5.058-13.634
		c3.078-2.979,7.134-4.471,12.168-4.471c5.032,0,9.089,1.491,12.167,4.471c3.372,3.178,5.058,7.722,5.058,13.634V175.049z
		 M-2609.299,172.997c0-4.496-1.002-7.892-3.006-10.188c-1.759-2.053-4.203-3.079-7.329-3.079c-4.838,0-8.015,2.395-9.529,7.184
		c-0.538,1.711-0.807,3.738-0.807,6.084v1.393c0,4.496,1.001,7.892,3.006,10.188c1.759,2.052,4.202,3.078,7.33,3.078
		c4.837,0,8.014-2.419,9.528-7.257c0.537-1.66,0.807-3.664,0.807-6.01V172.997z"/>
	<path fill="#FFFFFF" d="M-2564.588,165.96l-0.22,2.785h-6.084v-1.612c0-1.71-0.439-3.103-1.319-4.178
		c-1.612-2.15-3.592-3.226-5.938-3.226c-2.591,0-4.544,1.125-5.863,3.372c-1.076,1.857-1.613,4.178-1.613,6.963v22.356h-6.89
		v-37.456h4.911l1.026,5.571c0.732-2.199,2.735-3.982,6.01-5.351c1.417-0.635,3.054-0.953,4.911-0.953
		c1.856,0,3.457,0.306,4.801,0.916c1.344,0.611,2.48,1.454,3.409,2.528C-2565.541,159.828-2564.588,162.588-2564.588,165.96z"/>
	<path fill="#FFFFFF" d="M-2532.85,192.421l-11.215-13.927l-5.645,5.864v8.063h-6.89v-52.775h6.89v36.21l16.713-20.891h7.549
		l-14.439,18.179l15.393,19.277H-2532.85z"/>
	<path fill="#FFFFFF" d="M-2515.919,149.907c0-7.231,2.907-10.848,8.723-10.848c2.736,0,5.032,0.465,6.89,1.393v5.058
		c-1.515-0.635-2.761-0.953-3.738-0.953c-1.025,0-1.784,0.05-2.271,0.146c-0.489,0.099-0.93,0.318-1.319,0.66
		c-0.93,0.685-1.394,1.955-1.394,3.812v5.79h8.723v5.498h-8.723v31.958h-6.89v-31.958h-4.104v-5.498h4.104V149.907z"/>
	<path fill="#FFFFFF" d="M-2492.317,192.421v-52.775h6.891v52.775H-2492.317z"/>
	<path fill="#FFFFFF" d="M-2440.789,175.049c0,5.913-1.686,10.482-5.058,13.707c-3.078,2.932-7.135,4.398-12.167,4.398
		c-5.034,0-9.09-1.467-12.168-4.398c-3.372-3.225-5.058-7.794-5.058-13.707v-2.712c0-5.912,1.686-10.456,5.058-13.634
		c3.078-2.979,7.134-4.471,12.168-4.471c5.032,0,9.089,1.491,12.167,4.471c3.372,3.178,5.058,7.722,5.058,13.634V175.049z
		 M-2447.679,172.997c0-4.496-1.002-7.892-3.006-10.188c-1.759-2.053-4.203-3.079-7.329-3.079c-4.838,0-8.015,2.395-9.529,7.184
		c-0.538,1.711-0.807,3.738-0.807,6.084v1.393c0,4.496,1.001,7.892,3.006,10.188c1.759,2.052,4.202,3.078,7.33,3.078
		c4.837,0,8.014-2.419,9.528-7.257c0.537-1.66,0.807-3.664,0.807-6.01V172.997z"/>
	<path fill="#FFFFFF" d="M-2407.512,166.253l-8.502,26.168h-7.184l-12.314-37.456h7.11l8.723,27.414h0.293l8.869-27.414h6.743
		l8.723,27.414h0.293l8.869-27.414h6.744l-12.241,37.456h-7.184l-8.648-26.168H-2407.512z"/>
	<path fill="#FFFFFF" d="M-2324.173,181.499h-24.042l-4.178,10.922h-6.964l19.645-50.283h7.916l19.645,50.283h-7.771
		L-2324.173,181.499z M-2336.341,150.787l-9.309,24.188h18.984l-9.235-24.188H-2336.341z"/>
	<path fill="#FFFFFF" d="M-2297.932,171.457v20.964h-7.184v-50.283h21.697c4.251,0,7.793,1.319,10.628,3.958
		c2.932,2.786,4.397,6.354,4.397,10.702c0,4.35-1.466,7.916-4.397,10.701c-2.835,2.639-6.377,3.958-10.628,3.958H-2297.932z
		 M-2297.932,148.661v16.272h13.854c2.296,0,4.3-0.806,6.011-2.419c1.66-1.563,2.492-3.469,2.492-5.717
		c0-2.247-0.807-4.153-2.419-5.718c-1.711-1.612-3.738-2.419-6.084-2.419H-2297.932z"/>
	<path fill="#FFFFFF" d="M-2262.236,142.138h18.911v6.523h-5.864v37.236h5.864v6.523h-18.911v-6.523h5.864v-37.236h-5.864V142.138z"
		/>
</g>
<g>
	<path fill="#FFFFFF" d="M-2093.169,43.839h15.199v68.103h-15.199V43.839z"/>
	<path fill="#FFFFFF" d="M-2026.139,33.512h13.835l-40.92,89.343h-13.737L-2026.139,33.512z"/>
	<path fill="#FFFFFF" d="M-1946.44,102.54c-6.885,6.723-15.361,10.084-25.429,10.084c-10.068,0-18.545-3.361-25.429-10.084
		c-6.886-6.723-10.328-15.084-10.328-25.088c0-10.001,3.442-18.365,10.328-25.088c6.884-6.723,15.36-10.084,25.429-10.084
		c10.067,0,18.544,3.361,25.429,10.084s10.328,15.086,10.328,25.088C-1936.112,87.456-1939.556,95.817-1946.44,102.54z
		 M-1951.604,77.501c0-6.072-1.949-11.253-5.846-15.54c-3.897-4.287-8.688-6.43-14.371-6.43c-5.685,0-10.474,2.144-14.371,6.43
		c-3.897,4.287-5.846,9.468-5.846,15.54c0,6.074,1.948,11.238,5.846,15.491c3.897,4.255,8.687,6.382,14.371,6.382
		c5.683,0,10.474-2.127,14.371-6.382C-1953.553,88.739-1951.604,83.575-1951.604,77.501z"/>
</g>
<path fill="#3397E1" d="M-1296.458,8.394c-73.146,0-132.444,58.891-132.444,131.533c0,42.863,20.655,80.928,52.609,104.941
	l0.03-109.803c1.039-40.074,35.979-74.855,78.957-74.855c43.633,0,79.075,35.088,79.075,77.902
	c0,42.818-34.831,77.906-78.464,77.906c-7.268,0-15.373-0.978-20.373-2.782v-32.334c5,3.005,12.834,4.747,20.322,4.747
	c26.459,0,47.581-20.994,47.581-46.957c0-25.961-21.471-46.9-47.931-46.9c-26.456,0-47.774,21.265-47.774,47.227l-0.008,123.321
	c15.011,5.862,31.326,9.119,48.434,9.119c73.146,0,132.436-58.89,132.436-131.532C-1164.008,67.285-1223.312,8.394-1296.458,8.394z"
	/>
<g>
	<g>
		<path fill="#010303" d="M-1089.794,56.093c3.934,0,7.67,0.767,11.209,2.296c3.54,1.529,6.643,3.583,9.309,6.161
			c2.665,2.579,4.763,5.617,6.292,9.11c1.528,3.497,2.295,7.211,2.295,11.145c0,4.02-0.767,7.8-2.295,11.339
			c-1.529,3.538-3.627,6.641-6.292,9.307c-2.666,2.666-5.747,4.764-9.242,6.293c-3.496,1.53-7.21,2.293-11.143,2.293h-14.028
			c-0.524,0-0.786,0.262-0.786,0.786v31.201c0,0.439-0.197,0.852-0.59,1.245c-0.393,0.393-0.809,0.591-1.245,0.591h-12.062
			c-0.523,0-0.962-0.198-1.311-0.591c-0.35-0.394-0.523-0.806-0.523-1.245V57.93c0-0.437,0.174-0.853,0.523-1.245
			c0.349-0.395,0.787-0.592,1.311-0.592H-1089.794z M-1090.972,99.224c1.92,0,3.756-0.37,5.504-1.113
			c1.748-0.742,3.279-1.771,4.589-3.082c1.312-1.311,2.36-2.84,3.146-4.587c0.787-1.748,1.181-3.671,1.181-5.77
			c0-1.92-0.394-3.713-1.181-5.375c-0.786-1.658-1.835-3.081-3.146-4.26c-1.31-1.181-2.841-2.119-4.589-2.819
			c-1.748-0.699-3.584-1.049-5.504-1.049h-12.718c-0.524,0-0.786,0.263-0.786,0.787v26.48c0,0.525,0.262,0.787,0.786,0.787
			H-1090.972z"/>
		<path fill="#010303" d="M-1049.888,87.951c0-0.525,0.198-0.961,0.591-1.312c0.393-0.347,0.807-0.523,1.246-0.523h6.555
			c1.134,0,1.746,0.437,1.834,1.31l0.263,2.36c0.087,0.612,0.151,1.202,0.196,1.77c0.043,0.57,0.066,0.897,0.066,0.983
			c0.173,0.786,0.523,0.917,1.049,0.393c0.523-0.786,1.245-1.659,2.162-2.622c0.918-0.96,2.01-1.854,3.277-2.687
			c1.266-0.829,2.666-1.507,4.195-2.032c1.527-0.525,3.211-0.786,5.048-0.786c1.135,0,2.337,0.088,3.604,0.261
			c1.267,0.176,2.402,0.459,3.41,0.852c1.002,0.394,1.789,0.875,2.357,1.442c0.568,0.569,0.678,1.202,0.328,1.901l-4.85,8.65
			c-0.525,0.876-1.573,1.05-3.147,0.525c-2.186-0.696-4.128-0.742-5.833-0.129c-1.704,0.612-3.125,1.573-4.261,2.884
			c-1.136,1.31-1.989,2.84-2.556,4.587c-0.57,1.749-0.853,3.454-0.853,5.112v35.134c0,1.226-0.831,1.836-2.491,1.836h-10.355
			c-0.439,0-0.854-0.198-1.246-0.591c-0.393-0.394-0.591-0.806-0.591-1.245V87.951z"/>
		<path fill="#010303" d="M-955.928,99.027c2.184,2.798,2.666,4.241,3.892,7.603c1.222,3.364,1.835,6.882,1.835,10.554
			c0,4.371-0.832,8.478-2.491,12.321c-1.661,3.849-3.933,7.19-6.816,10.03c-2.884,2.842-6.272,5.092-10.159,6.752
			c-3.891,1.657-8.063,2.49-12.521,2.49c-3.846,0-7.561-0.833-11.144-2.49c-3.584-1.66-6.729-3.91-9.438-6.752
			c-2.71-2.84-4.874-6.182-6.489-10.03c-1.618-3.844-2.426-7.95-2.426-12.321c0-6.031,1.377-11.405,4.129-16.124
			c2.754-4.719,6.294-8.41,10.619-11.077c4.327-2.666,9.155-4.13,14.486-4.392c5.33-0.263,10.574,1.006,15.731,3.8
			c0.874,0.439,8.748,6.104,11.128,10.164c0.786,1.25-10.57,10.626-10.954,9.922c-3.221-5.904-7.733-7.586-8.432-8.025
			c-2.099-0.871-4.502-1.311-7.211-1.311c-2.185,0-4.195,0.439-6.029,1.311c-1.837,0.875-3.433,2.076-4.786,3.605
			c-1.356,1.529-2.404,3.341-3.146,5.44c-0.743,2.099-1.114,4.325-1.114,6.686c0,4.896,1.419,8.936,4.26,12.126
			c2.84,3.191,6.443,4.785,10.815,4.785c2.446,0,4.74-0.415,6.883-1.244c2.141-0.832,3.999-2.011,5.57-3.541
			c1.574-1.528,2.819-3.32,3.737-5.374c0.917-2.053,1.376-4.304,1.376-6.752c0-1.572-0.241-3.124-0.721-4.652
			c-0.481-1.529-1.07-2.906-1.77-4.133c-0.7-1.484-0.393-2.75,0.917-3.8l7.867-7.08C-957.893,97.083-956.277,98.678-955.928,99.027z
			"/>
		<path fill="#010303" d="M-895.93,141.962c0.525,0.698,0.634,1.374,0.327,2.031c-0.307,0.654-0.811,1.159-1.507,1.506
			c-1.836,0.877-3.913,1.641-6.228,2.296c-2.316,0.654-5.046,0.982-8.192,0.982c-3.848,0-7.563-0.833-11.145-2.49
			c-3.584-1.66-6.73-3.91-9.438-6.752c-2.71-2.84-4.873-6.182-6.489-10.03c-1.618-3.844-2.425-7.95-2.425-12.321v-0.132v-0.129
			c0-4.371,0.807-8.478,2.425-12.324c1.616-3.843,3.779-7.188,6.489-10.028c2.708-2.839,5.854-5.09,9.438-6.751
			c3.582-1.66,7.297-2.491,11.145-2.491c4.894,0,9.701,1.095,14.42,3.278c0.436,0.35,0.852,0.721,1.245,1.114
			c0.394,0.393,0.46,0.983,0.198,1.771l-4.721,8.651c-0.438,0.7-1.029,1.202-1.771,1.508c-0.743,0.307-1.464,0.242-2.162-0.197
			c-2.099-0.871-4.503-1.311-7.21-1.311c-2.099,0-4.064,0.439-5.9,1.311c-1.835,0.875-3.431,2.076-4.785,3.605
			c-1.355,1.529-2.424,3.323-3.212,5.375c-0.785,2.055-1.179,4.261-1.179,6.619c0,2.359,0.394,4.591,1.179,6.687
			c0.788,2.098,1.856,3.889,3.212,5.374c1.354,1.487,2.95,2.668,4.785,3.54c1.836,0.875,3.802,1.312,5.9,1.312
			c2.707,0,5.111-0.437,7.21-1.312c0.698-0.436,1.419-0.502,2.162-0.196c0.741,0.306,1.333,0.809,1.771,1.508L-895.93,141.962z"/>
		<path fill="#010303" d="M-859.357,85.721c4.197,0,8.195,0.767,11.996,2.294c3.802,1.53,7.102,3.759,9.898,6.687
			c2.795,2.93,4.958,6.576,6.489,10.946c1.527,4.371,2.204,9.438,2.032,15.204c0,0.875-0.133,1.488-0.394,1.837
			c-0.263,0.349-0.832,0.524-1.705,0.524c-7.518,0.09-14.333,0.131-20.451,0.131h-23.466c-0.086,0-0.176,0.045-0.262,0.13v0.134
			c0.086,0.438,0.414,1.268,0.984,2.489c0.566,1.226,1.462,2.514,2.686,3.866c1.224,1.357,2.84,2.623,4.851,3.805
			c2.011,1.18,4.543,1.944,7.605,2.292c2.62,0.351,4.98,0.351,7.078,0c2.097-0.348,3.954-0.852,5.569-1.507
			c1.617-0.656,3.017-1.443,4.196-2.359c1.182-0.918,2.166-1.813,2.951-2.689c0.348-0.346,0.74-0.393,1.179-0.129l7.079,6.03
			c0.349,0.351,0.525,0.654,0.525,0.917c0,0.351-0.088,0.613-0.262,0.786c-0.702,0.787-1.771,1.882-3.212,3.277
			c-1.442,1.4-3.323,2.755-5.638,4.063c-2.317,1.313-5.093,2.426-8.323,3.345c-3.235,0.916-6.95,1.331-11.144,1.245
			c-4.195-0.088-8.193-0.983-11.997-2.689c-3.802-1.703-7.102-3.974-9.897-6.815c-2.797-2.84-5.027-6.163-6.686-9.965
			c-1.661-3.8-2.49-7.885-2.49-12.255c0-4.371,0.807-8.476,2.425-12.324c1.616-3.843,3.822-7.187,6.621-10.029
			c2.795-2.837,6.074-5.088,9.832-6.75C-867.528,86.553-863.552,85.721-859.357,85.721z M-842.97,110.498
			c0.087-0.086,0.131-0.218,0.131-0.395c-0.437-1.048-1.027-2.248-1.77-3.604c-0.742-1.354-1.748-2.622-3.015-3.803
			c-1.269-1.181-2.841-2.183-4.72-3.015c-1.88-0.828-4.13-1.245-6.75-1.245c-2.711,0-5.005,0.505-6.883,1.509
			c-1.882,1.005-3.411,2.163-4.59,3.473c-1.18,1.312-2.055,2.623-2.621,3.932c-0.569,1.313-0.94,2.231-1.113,2.753v0.395
			c0.084,0.088,0.173,0.131,0.261,0.131h30.676C-843.1,110.629-842.97,110.586-842.97,110.498z"/>
		<path fill="#010303" d="M-790.535,109.45c3.672,0.611,7.08,1.31,10.227,2.097c3.146,0.785,5.875,1.88,8.193,3.276
			c2.314,1.401,4.13,3.191,5.439,5.375c1.313,2.188,1.966,4.896,1.966,8.127c0,2.885-0.633,5.572-1.9,8.063
			c-1.268,2.492-3.058,4.611-5.374,6.359c-2.317,1.747-5.092,3.125-8.324,4.128c-3.236,1.006-6.818,1.508-10.751,1.508
			c-2.884,0-5.658-0.373-8.323-1.114c-2.67-0.74-5.114-1.835-7.341-3.276c-2.23-1.443-4.152-3.212-5.77-5.31
			c-1.618-2.1-2.865-4.456-3.735-7.079c-0.524-0.96-0.394-1.924,0.394-2.885c0.521-0.786,1.353-1.179,2.49-1.179h9.307
			c1.049,0,1.922,0.393,2.622,1.179c1.484,2.186,3.23,3.67,5.244,4.457c2.011,0.787,3.976,1.18,5.9,1.18
			c3.059,0,5.525-0.437,7.404-1.312c1.88-0.871,2.821-2.14,2.821-3.802c0-0.871-0.177-1.638-0.525-2.294
			c-0.351-0.654-0.984-1.244-1.899-1.771c-0.919-0.522-2.211-0.981-3.87-1.374c-1.659-0.395-3.758-0.808-6.29-1.245
			c-2.188-0.349-4.636-0.854-7.344-1.509c-2.709-0.655-5.243-1.64-7.602-2.949c-2.361-1.311-4.326-3.036-5.9-5.178
			c-1.573-2.144-2.358-4.873-2.358-8.193c0-2.361,0.521-4.698,1.572-7.013c1.049-2.315,2.577-4.393,4.588-6.227
			c2.01-1.836,4.479-3.322,7.406-4.458c2.93-1.135,6.313-1.704,10.16-1.704c6.031,0,11.187,1.333,15.47,3.999
			c4.282,2.667,7.384,6.272,9.31,10.815c0.262,1.05,0.085,1.967-0.525,2.752c-0.177,0.438-0.523,0.787-1.05,1.05
			c-0.527,0.261-1.048,0.395-1.572,0.395h-9.439c-0.522,0-1.027-0.134-1.507-0.395c-0.481-0.263-0.942-0.612-1.378-1.05
			c-0.701-1.049-1.923-1.899-3.669-2.556c-1.751-0.656-3.629-1.025-5.639-1.114c-1.749-0.085-3.146,0-4.193,0.263
			c-1.05,0.261-1.858,0.655-2.427,1.179c-0.568,0.525-0.939,1.115-1.113,1.77c-0.176,0.655-0.264,1.245-0.264,1.769
			c0,1.489,0.633,2.538,1.902,3.146C-796.936,107.964-794.381,108.663-790.535,109.45z"/>
		<path fill="#010303" d="M-730.493,109.45c3.672,0.611,7.079,1.31,10.226,2.097c3.146,0.785,5.877,1.88,8.193,3.276
			c2.314,1.401,4.13,3.191,5.44,5.375c1.311,2.188,1.966,4.896,1.966,8.127c0,2.885-0.634,5.572-1.899,8.063
			c-1.27,2.492-3.06,4.611-5.376,6.359c-2.315,1.747-5.092,3.125-8.324,4.128c-3.235,1.006-6.818,1.508-10.751,1.508
			c-2.883,0-5.658-0.373-8.323-1.114c-2.668-0.74-5.114-1.835-7.341-3.276c-2.229-1.443-4.151-3.212-5.77-5.31
			c-1.618-2.1-2.863-4.456-3.734-7.079c-0.525-0.96-0.395-1.924,0.393-2.885c0.523-0.786,1.353-1.179,2.489-1.179h9.308
			c1.051,0,1.923,0.393,2.622,1.179c1.485,2.186,3.232,3.67,5.244,4.457c2.01,0.787,3.976,1.18,5.899,1.18
			c3.06,0,5.526-0.437,7.406-1.312c1.878-0.871,2.82-2.14,2.82-3.802c0-0.871-0.175-1.638-0.526-2.294
			c-0.351-0.654-0.983-1.244-1.898-1.771c-0.918-0.522-2.21-0.981-3.871-1.374c-1.658-0.395-3.757-0.808-6.29-1.245
			c-2.186-0.349-4.633-0.854-7.341-1.509c-2.709-0.655-5.246-1.64-7.604-2.949c-2.359-1.311-4.325-3.036-5.901-5.178
			c-1.57-2.144-2.357-4.873-2.357-8.193c0-2.361,0.523-4.698,1.573-7.013c1.049-2.315,2.576-4.393,4.587-6.227
			c2.011-1.836,4.479-3.322,7.406-4.458c2.927-1.135,6.314-1.704,10.16-1.704c6.032,0,11.186,1.333,15.471,3.999
			c4.281,2.667,7.385,6.272,9.309,10.815c0.26,1.05,0.084,1.967-0.525,2.752c-0.177,0.438-0.524,0.787-1.05,1.05
			c-0.524,0.261-1.046,0.395-1.572,0.395h-9.438c-0.525,0-1.028-0.134-1.508-0.395c-0.481-0.263-0.939-0.612-1.377-1.05
			c-0.701-1.049-1.924-1.899-3.67-2.556c-1.75-0.656-3.629-1.025-5.639-1.114c-1.749-0.085-3.146,0-4.194,0.263
			c-1.049,0.261-1.858,0.655-2.426,1.179c-0.568,0.525-0.938,1.115-1.113,1.77c-0.177,0.655-0.263,1.245-0.263,1.769
			c0,1.489,0.634,2.538,1.901,3.146C-736.896,107.964-734.338,108.663-730.493,109.45z"/>
		<path fill="#010303" d="M-590.202,147.86h-12.191c-0.439,0-0.832-0.175-1.181-0.525c-0.35-0.349-0.568-0.697-0.653-1.048
			l-7.866-50.078c0-0.347-0.176-0.568-0.523-0.655c-0.352-0.085-0.613,0.044-0.787,0.393l-23.729,52.174
			c-0.352,0.699-0.875,1.049-1.573,1.049h-2.36c-0.7,0-1.226-0.35-1.573-1.049c-0.088-0.088-0.177-0.22-0.263-0.394
			c-0.088-0.174-0.35-0.763-0.785-1.77c-0.438-1.004-1.114-2.532-2.033-4.588c-0.916-2.052-2.251-5.002-3.997-8.85
			c-1.752-3.843-3.958-8.716-6.622-14.617c-2.665-5.898-5.921-13.216-9.767-21.957c-0.175-0.348-0.438-0.478-0.786-0.393
			c-0.349,0.086-0.57,0.308-0.656,0.655l-8.126,50.208c-0.088,0.352-0.286,0.678-0.592,0.983c-0.308,0.308-0.677,0.46-1.113,0.46
			h-11.93c-0.438,0-0.876-0.24-1.311-0.721c-0.439-0.48-0.569-1.027-0.393-1.641l15.338-89.273c0.175-0.961,0.74-1.443,1.704-1.443
			h3.8c0.786,0,1.355,0.308,1.705,0.917l27.793,62.662c0.437,0.787,0.919,0.787,1.44,0c4.633-10.398,8.564-19.182,11.799-26.348
			c3.233-7.166,5.878-13.065,7.933-17.698c2.054-4.631,3.649-8.194,4.784-10.684c1.136-2.491,1.967-4.326,2.49-5.507
			c0.525-1.179,0.854-1.855,0.984-2.032c0.131-0.173,0.195-0.304,0.195-0.393c0.264-0.61,0.83-0.917,1.705-0.917h3.671
			c0.961,0,1.528,0.482,1.702,1.443c1.923,11.187,3.628,21.04,5.114,29.562c1.484,8.521,2.753,15.927,3.802,22.218
			c1.05,6.293,1.944,11.582,2.688,15.863c0.743,4.282,1.377,7.822,1.9,10.619l1.967,11.274
			C-588.234,147.159-588.806,147.86-590.202,147.86z"/>
		<path fill="#010303" d="M-517.014,144.583c0,0.962-0.326,1.749-0.982,2.359c-0.656,0.611-1.465,0.918-2.428,0.918h-8.65
			c-0.963,0-1.771-0.307-2.424-0.918c-0.655-0.61-0.985-1.397-0.985-2.359v-12.586c0-1.574,0-3.124,0-4.654
			c0-1.529,0.021-2.926,0.067-4.194c0.042-1.266,0.065-2.296,0.065-3.081c0-0.787,0-1.223,0-1.311c0-4.02-0.787-7.362-2.361-10.03
			c-1.572-2.664-3.8-4.783-6.685-6.357c-2.098-1.134-4.283-1.812-6.556-2.031c-2.273-0.216-4.456-0.021-6.554,0.592
			c-2.097,0.61-4.045,1.595-5.833,2.948c-1.794,1.355-3.259,3.036-4.392,5.047c-1.75,2.973-2.382,6.141-1.902,9.504
			c0.48,3.365,1.682,6.381,3.604,9.046c1.923,2.666,4.436,4.676,7.538,6.029c3.103,1.355,6.443,1.51,10.029,0.46
			c0.874-0.262,1.616-0.195,2.229,0.197c0.61,0.393,1.136,0.938,1.571,1.638l3.542,9.7c0.262,0.702-0.047,1.226-0.919,1.575
			c-4.72,1.572-9.288,2.14-13.698,1.703c-4.414-0.439-8.437-1.618-12.062-3.54c-3.626-1.92-6.774-4.456-9.438-7.603
			c-2.666-3.146-4.635-6.642-5.901-10.487c-1.266-3.844-1.767-7.908-1.506-12.192c0.262-4.282,1.485-8.563,3.668-12.847
			c1.924-3.671,4.547-6.816,7.867-9.439c3.321-2.622,6.949-4.522,10.881-5.702c3.935-1.18,7.951-1.551,12.062-1.115
			c4.107,0.439,7.908,1.88,11.406,4.326c0.609,0.701,1.2,0.963,1.77,0.786c0.567-0.174,0.852-0.742,0.852-1.703
			c0-0.873,0.327-1.66,0.984-2.36c0.655-0.698,1.419-1.049,2.293-1.049h9.437c0.963,0,1.771,0.351,2.428,1.049
			c0.656,0.701,0.982,1.488,0.982,2.36V144.583z"/>
		<path fill="#010303" d="M-446.087,86.968c0.219,0.655,0.152,1.291-0.196,1.9l-24.514,23.857c-0.524,0.524-0.57,1.096-0.132,1.705
			c2.097,2.621,4.282,5.375,6.556,8.259c2.271,2.887,4.456,5.702,6.554,8.456c2.098,2.752,4.063,5.332,5.899,7.735
			c1.836,2.405,3.408,4.478,4.72,6.226c0.348,0.613,0.413,1.226,0.197,1.836c-0.222,0.611-0.723,0.918-1.509,0.918h-13.765
			c-0.874,0-1.487-0.263-1.836-0.786l-23.073-31.202v30.152c0,0.439-0.195,0.852-0.588,1.245c-0.395,0.393-0.811,0.591-1.246,0.591
			h-11.406c-0.525,0-0.984-0.198-1.377-0.591c-0.394-0.394-0.588-0.806-0.588-1.245V57.011c0-0.524,0.194-0.982,0.588-1.376
			c0.393-0.394,0.852-0.59,1.377-0.59h11.406c0.436,0,0.852,0.197,1.246,0.59c0.393,0.394,0.588,0.852,0.588,1.376v54.273
			l24.516-23.858c0.438-0.348,0.873-0.676,1.313-0.983c0.436-0.305,0.959-0.459,1.571-0.459h12.323
			C-446.764,85.983-446.307,86.312-446.087,86.968z"/>
		<path fill="#010303" d="M-408.658,85.721c4.195,0,8.193,0.767,11.996,2.294c3.803,1.53,7.1,3.759,9.896,6.687
			c2.797,2.93,4.959,6.576,6.49,10.946c1.529,4.371,2.206,9.438,2.031,15.204c0,0.875-0.131,1.488-0.393,1.837
			c-0.264,0.349-0.833,0.524-1.704,0.524c-7.517,0.09-14.334,0.131-20.451,0.131h-23.467c-0.087,0-0.176,0.045-0.263,0.13v0.134
			c0.087,0.438,0.415,1.268,0.984,2.489c0.566,1.226,1.463,2.514,2.687,3.866c1.224,1.357,2.838,2.623,4.853,3.805
			c2.009,1.18,4.541,1.944,7.603,2.292c2.623,0.351,4.981,0.351,7.078,0c2.098-0.348,3.954-0.852,5.572-1.507
			c1.616-0.656,3.015-1.443,4.194-2.359c1.18-0.918,2.164-1.813,2.951-2.689c0.348-0.346,0.742-0.393,1.179-0.129l7.08,6.03
			c0.35,0.351,0.524,0.654,0.524,0.917c0,0.351-0.089,0.613-0.264,0.786c-0.699,0.787-1.77,1.882-3.211,3.277
			c-1.441,1.4-3.322,2.755-5.637,4.063c-2.317,1.313-5.093,2.426-8.325,3.345c-3.233,0.916-6.948,1.331-11.143,1.245
			c-4.196-0.088-8.194-0.983-11.996-2.689c-3.801-1.703-7.102-3.974-9.898-6.815c-2.797-2.84-5.025-6.163-6.685-9.965
			c-1.661-3.8-2.49-7.885-2.49-12.255c0-4.371,0.805-8.476,2.425-12.324c1.615-3.843,3.823-7.187,6.621-10.029
			c2.795-2.837,6.073-5.088,9.832-6.75C-416.83,86.553-412.853,85.721-408.658,85.721z M-392.271,110.498
			c0.088-0.086,0.131-0.218,0.131-0.395c-0.437-1.048-1.027-2.248-1.77-3.604c-0.744-1.354-1.748-2.622-3.015-3.803
			c-1.269-1.181-2.842-2.183-4.72-3.015c-1.88-0.828-4.128-1.245-6.751-1.245c-2.711,0-5.004,0.505-6.883,1.509
			c-1.881,1.005-3.409,2.163-4.589,3.473c-1.179,1.312-2.055,2.623-2.622,3.932c-0.569,1.313-0.938,2.231-1.113,2.753v0.395
			c0.085,0.088,0.175,0.131,0.261,0.131h30.678C-392.4,110.629-392.271,110.586-392.271,110.498z"/>
		<path fill="#010303" d="M-365.869,87.951c0-0.525,0.196-0.961,0.588-1.312c0.396-0.347,0.811-0.523,1.246-0.523h6.555
			c1.137,0,1.751,0.437,1.836,1.31l0.262,2.36c0.088,0.612,0.154,1.202,0.199,1.77c0.042,0.57,0.064,0.897,0.064,0.983
			c0.175,0.786,0.525,0.917,1.048,0.393c0.524-0.786,1.246-1.659,2.164-2.622c0.917-0.96,2.009-1.854,3.278-2.687
			c1.264-0.829,2.663-1.507,4.193-2.032c1.529-0.525,3.213-0.786,5.047-0.786c1.136,0,2.338,0.088,3.605,0.261
			c1.266,0.176,2.403,0.459,3.408,0.852c1.004,0.394,1.791,0.875,2.36,1.442c0.568,0.569,0.677,1.202,0.328,1.901l-4.852,8.65
			c-0.524,0.876-1.572,1.05-3.145,0.525c-2.187-0.696-4.132-0.742-5.835-0.129c-1.704,0.612-3.126,1.573-4.26,2.884
			c-1.139,1.31-1.988,2.84-2.557,4.587c-0.569,1.749-0.853,3.454-0.853,5.112v35.134c0,1.226-0.831,1.836-2.49,1.836h-10.358
			c-0.436,0-0.851-0.198-1.246-0.591c-0.392-0.394-0.588-0.806-0.588-1.245V87.951z"/>
	</g>
</g>
<g>
	<path fill="#474747" d="M-1075.568,211.208c0,6.499-1.931,11.508-5.79,15.026c-3.471,3.225-8.015,4.838-13.634,4.838
		c-6.256,0-11.191-1.856-14.807-5.571c-3.91-3.958-5.863-9.626-5.863-17.005v-6.598c0-7.329,1.953-12.997,5.863-17.005
		c3.665-3.713,8.6-5.57,14.807-5.57c5.717,0,10.311,1.661,13.78,4.984c3.763,3.518,5.644,8.527,5.644,15.025h-7.184
		c0-4.495-1.148-7.939-3.444-10.335c-2.102-2.101-5.034-3.151-8.796-3.151c-6.45,0-10.604,2.907-12.461,8.723
		c-0.685,2.052-1.025,4.496-1.025,7.329v6.598c0,8.112,2.662,13.146,7.988,15.1c1.661,0.636,3.445,0.952,5.352,0.952
		s3.628-0.256,5.168-0.77c1.539-0.513,2.846-1.307,3.921-2.382c2.394-2.394,3.592-5.791,3.592-10.188H-1075.568z"/>
	<path fill="#474747" d="M-1065.233,230.339v-52.775h6.89v52.775H-1065.233z"/>
	<path fill="#474747" d="M-1013.705,212.967c0,5.913-1.686,10.482-5.057,13.707c-3.079,2.932-7.136,4.398-12.168,4.398
		c-5.033,0-9.09-1.467-12.168-4.398c-3.371-3.225-5.058-7.794-5.058-13.707v-2.712c0-5.912,1.687-10.456,5.058-13.634
		c3.078-2.979,7.135-4.471,12.168-4.471c5.032,0,9.089,1.491,12.168,4.471c3.371,3.178,5.057,7.722,5.057,13.634V212.967z
		 M-1020.595,210.915c0-4.496-1.003-7.892-3.005-10.188c-1.76-2.053-4.203-3.079-7.33-3.079c-4.838,0-8.016,2.395-9.529,7.184
		c-0.538,1.711-0.807,3.738-0.807,6.084v1.393c0,4.496,1.002,7.892,3.006,10.188c1.759,2.052,4.202,3.078,7.33,3.078
		c4.838,0,8.014-2.419,9.528-7.257c0.537-1.66,0.807-3.664,0.807-6.01V210.915z"/>
	<path fill="#474747" d="M-967.16,229.605c-1.467,0.978-3.006,1.467-4.619,1.467c-1.662,0-2.895-0.172-3.701-0.514
		c-0.807-0.341-1.479-0.806-2.016-1.393c-0.928-1.026-1.441-2.442-1.539-4.251c-1.906,2.785-4.617,4.667-8.137,5.644
		c-1.172,0.342-2.541,0.514-4.104,0.514c-1.613,0-3.227-0.257-4.838-0.771c-1.613-0.513-3.031-1.282-4.252-2.309
		c-2.541-2.296-3.812-5.595-3.812-9.896v-25.215h6.89v23.969c0,3.178,0.733,5.425,2.199,6.744c1.467,1.319,3.371,1.979,5.717,1.979
		c2.639,0,4.959-1.001,6.965-3.005c2.002-2.003,3.004-4.472,3.004-7.403v-22.283h6.891v30.126c0,0.929,0.207,1.589,0.623,1.979
		c0.414,0.392,0.891,0.586,1.43,0.586c1.123,0,2.223-0.341,3.299-1.026V229.605z"/>
	<path fill="#474747" d="M-934.836,197.647v-20.084h6.89v52.775h-5.131c-0.245-0.928-0.563-2.639-0.953-5.131
		c-2.785,3.91-6.646,5.864-11.581,5.864c-4.447,0-8.015-1.563-10.701-4.691c-2.981-3.42-4.472-8.356-4.472-14.807v-0.806
		c0-5.912,1.417-10.556,4.251-13.928c2.639-3.126,6.279-4.69,10.922-4.69C-940.97,192.15-937.378,193.982-934.836,197.647z
		 M-953.895,211.647c0,7.33,1.881,11.753,5.645,13.268c1.173,0.439,2.467,0.659,3.885,0.659c6.401,0,9.603-4.642,9.603-13.927
		c0-7.378-1.906-11.801-5.718-13.267c-1.173-0.488-2.468-0.733-3.885-0.733c-3.03,0-5.327,1.002-6.89,3.005
		C-953.015,202.95-953.895,206.615-953.895,211.647z"/>
	<path fill="#474747" d="M-870.628,193.982l-10.628,36.356h-7.33l-14.366-50.283h7.696l10.628,37.896h0.44l10.701-37.896h6.964
		l10.628,37.896h0.439l10.702-37.896h6.963l-14.732,50.283h-7.33l-10.262-36.356H-870.628z"/>
	<path fill="#474747" d="M-800.408,212.967c0,5.913-1.686,10.482-5.058,13.707c-3.078,2.932-7.135,4.398-12.167,4.398
		c-5.034,0-9.09-1.467-12.168-4.398c-3.372-3.225-5.058-7.794-5.058-13.707v-2.712c0-5.912,1.686-10.456,5.058-13.634
		c3.078-2.979,7.134-4.471,12.168-4.471c5.032,0,9.089,1.491,12.167,4.471c3.372,3.178,5.058,7.722,5.058,13.634V212.967z
		 M-807.298,210.915c0-4.496-1.003-7.892-3.006-10.188c-1.759-2.053-4.203-3.079-7.329-3.079c-4.838,0-8.015,2.395-9.529,7.184
		c-0.538,1.711-0.807,3.738-0.807,6.084v1.393c0,4.496,1.001,7.892,3.006,10.188c1.759,2.052,4.202,3.078,7.33,3.078
		c4.837,0,8.014-2.419,9.528-7.257c0.537-1.66,0.807-3.664,0.807-6.01V210.915z"/>
	<path fill="#474747" d="M-762.587,203.878l-0.22,2.785h-6.084v-1.612c0-1.71-0.439-3.103-1.319-4.178
		c-1.612-2.15-3.592-3.226-5.938-3.226c-2.59,0-4.543,1.125-5.862,3.372c-1.076,1.857-1.613,4.178-1.613,6.963v22.356h-6.89v-37.456
		h4.911l1.026,5.571c0.732-2.199,2.735-3.982,6.01-5.351c1.417-0.635,3.054-0.953,4.911-0.953c1.856,0,3.456,0.306,4.801,0.916
		c1.344,0.611,2.48,1.454,3.409,2.528C-763.54,197.746-762.587,200.506-762.587,203.878z"/>
	<path fill="#474747" d="M-730.85,230.339l-11.214-13.927l-5.645,5.864v8.063h-6.89v-52.775h6.89v36.21l16.713-20.891h7.549
		l-14.439,18.179l15.393,19.277H-730.85z"/>
	<path fill="#474747" d="M-713.918,187.825c0-7.231,2.907-10.848,8.723-10.848c2.736,0,5.032,0.465,6.89,1.393v5.058
		c-1.515-0.635-2.761-0.953-3.738-0.953c-1.025,0-1.784,0.05-2.271,0.146c-0.489,0.099-0.93,0.318-1.319,0.66
		c-0.93,0.685-1.394,1.955-1.394,3.812v5.79h8.723v5.498h-8.723v31.958h-6.89v-31.958h-4.104v-5.498h4.104V187.825z"/>
	<path fill="#474747" d="M-690.316,230.339v-52.775h6.891v52.775H-690.316z"/>
	<path fill="#474747" d="M-638.788,212.967c0,5.913-1.686,10.482-5.058,13.707c-3.078,2.932-7.135,4.398-12.167,4.398
		c-5.034,0-9.09-1.467-12.169-4.398c-3.371-3.225-5.057-7.794-5.057-13.707v-2.712c0-5.912,1.686-10.456,5.057-13.634
		c3.079-2.979,7.135-4.471,12.169-4.471c5.032,0,9.089,1.491,12.167,4.471c3.372,3.178,5.058,7.722,5.058,13.634V212.967z
		 M-645.678,210.915c0-4.496-1.002-7.892-3.006-10.188c-1.759-2.053-4.203-3.079-7.329-3.079c-4.838,0-8.015,2.395-9.529,7.184
		c-0.538,1.711-0.808,3.738-0.808,6.084v1.393c0,4.496,1.002,7.892,3.007,10.188c1.759,2.052,4.202,3.078,7.33,3.078
		c4.837,0,8.013-2.419,9.528-7.257c0.537-1.66,0.807-3.664,0.807-6.01V210.915z"/>
	<path fill="#474747" d="M-605.511,204.171l-8.502,26.168h-7.184l-12.314-37.456h7.11l8.723,27.414h0.293l8.869-27.414h6.743
		l8.723,27.414h0.293l8.869-27.414h6.744l-12.241,37.456h-7.184l-8.648-26.168H-605.511z"/>
	<path fill="#474747" d="M-522.172,219.417h-24.043l-4.177,10.922h-6.964l19.645-50.283h7.916l19.645,50.283h-7.771
		L-522.172,219.417z M-534.34,188.705l-9.309,24.188h18.984l-9.235-24.188H-534.34z"/>
	<path fill="#474747" d="M-495.932,209.375v20.964h-7.184v-50.283h21.698c4.251,0,7.793,1.319,10.628,3.958
		c2.932,2.786,4.397,6.354,4.397,10.702c0,4.35-1.466,7.916-4.397,10.701c-2.835,2.639-6.377,3.958-10.628,3.958H-495.932z
		 M-495.932,186.579v16.272h13.854c2.296,0,4.3-0.806,6.011-2.419c1.66-1.563,2.492-3.469,2.492-5.717
		c0-2.247-0.807-4.153-2.419-5.718c-1.711-1.612-3.737-2.419-6.084-2.419H-495.932z"/>
	<path fill="#474747" d="M-460.235,180.056h18.911v6.523h-5.864v37.236h5.864v6.523h-18.911v-6.523h5.864v-37.236h-5.864V180.056z"
		/>
</g>
<g>
	<path fill="#010303" d="M-291.168,81.757h15.199v68.103h-15.199V81.757z"/>
	<path fill="#010303" d="M-224.138,71.43h13.835l-40.92,89.343h-13.737L-224.138,71.43z"/>
	<path fill="#010303" d="M-144.439,140.458c-6.885,6.723-15.361,10.084-25.429,10.084c-10.068,0-18.545-3.361-25.429-10.084
		c-6.886-6.723-10.328-15.084-10.328-25.088c0-10.001,3.442-18.365,10.328-25.088c6.884-6.723,15.36-10.084,25.429-10.084
		c10.067,0,18.544,3.361,25.429,10.084s10.328,15.087,10.328,25.088C-134.111,125.374-137.555,133.735-144.439,140.458z
		 M-149.603,115.419c0-6.072-1.95-11.253-5.846-15.54c-3.897-4.287-8.688-6.43-14.371-6.43c-5.685,0-10.474,2.144-14.37,6.43
		c-3.898,4.287-5.847,9.468-5.847,15.54c0,6.074,1.948,11.238,5.847,15.491c3.896,4.255,8.686,6.382,14.37,6.382
		c5.683,0,10.474-2.127,14.371-6.382C-151.553,126.657-149.603,121.493-149.603,115.419z"/>
</g>
<path fill="#3397E1" d="M146.542,8.394c-73.146,0-132.444,58.891-132.444,131.533c0,42.863,20.655,80.928,52.609,104.941
	l0.03-109.803c1.039-40.074,35.979-74.855,78.957-74.855c43.633,0,79.075,35.088,79.075,77.902
	c0,42.818-34.831,77.906-78.464,77.906c-7.268,0-15.373-0.978-20.373-2.782v-32.334c5,3.005,12.834,4.747,20.322,4.747
	c26.459,0,47.581-20.994,47.581-46.957c0-25.961-21.471-46.9-47.931-46.9c-26.456,0-47.774,21.265-47.774,47.227L98.123,262.34
	c15.011,5.862,31.326,9.119,48.434,9.119c73.146,0,132.436-58.89,132.436-131.532C278.992,67.285,219.688,8.394,146.542,8.394z"/>
<g>
	<g>
		<path fill="#010303" d="M353.206,56.093c3.934,0,7.67,0.767,11.209,2.296c3.54,1.529,6.643,3.583,9.309,6.161
			c2.665,2.579,4.763,5.617,6.292,9.11c1.528,3.497,2.295,7.211,2.295,11.145c0,4.02-0.767,7.8-2.295,11.339
			c-1.529,3.538-3.627,6.641-6.292,9.307c-2.666,2.666-5.747,4.764-9.242,6.293c-3.496,1.53-7.21,2.293-11.143,2.293h-14.028
			c-0.524,0-0.786,0.262-0.786,0.786v31.201c0,0.439-0.197,0.852-0.59,1.245c-0.393,0.393-0.809,0.591-1.245,0.591h-12.062
			c-0.523,0-0.962-0.198-1.311-0.591c-0.35-0.394-0.523-0.806-0.523-1.245V57.93c0-0.437,0.174-0.853,0.523-1.245
			c0.349-0.395,0.787-0.592,1.311-0.592H353.206z M352.028,99.224c1.92,0,3.756-0.37,5.504-1.113
			c1.748-0.742,3.279-1.771,4.589-3.082c1.312-1.311,2.36-2.84,3.146-4.587c0.787-1.748,1.181-3.671,1.181-5.77
			c0-1.92-0.394-3.713-1.181-5.375c-0.786-1.658-1.835-3.081-3.146-4.26c-1.31-1.181-2.841-2.119-4.589-2.819
			c-1.748-0.699-3.584-1.049-5.504-1.049h-12.718c-0.524,0-0.786,0.263-0.786,0.787v26.48c0,0.525,0.262,0.787,0.786,0.787H352.028z
			"/>
		<path fill="#010303" d="M393.112,87.951c0-0.525,0.198-0.961,0.591-1.312c0.393-0.347,0.807-0.523,1.246-0.523h6.555
			c1.134,0,1.746,0.437,1.834,1.31l0.263,2.36c0.087,0.612,0.151,1.202,0.196,1.77c0.043,0.57,0.066,0.897,0.066,0.983
			c0.173,0.786,0.523,0.917,1.049,0.393c0.523-0.786,1.245-1.659,2.162-2.622c0.918-0.96,2.01-1.854,3.277-2.687
			c1.266-0.829,2.666-1.507,4.195-2.032c1.527-0.525,3.211-0.786,5.048-0.786c1.135,0,2.337,0.088,3.604,0.261
			c1.267,0.176,2.402,0.459,3.41,0.852c1.002,0.394,1.789,0.875,2.357,1.442c0.568,0.569,0.678,1.202,0.328,1.901l-4.85,8.65
			c-0.525,0.876-1.573,1.05-3.147,0.525c-2.186-0.696-4.128-0.742-5.833-0.129c-1.704,0.612-3.125,1.573-4.261,2.884
			c-1.136,1.31-1.989,2.84-2.556,4.587c-0.57,1.749-0.853,3.454-0.853,5.112v35.134c0,1.226-0.831,1.836-2.491,1.836h-10.355
			c-0.439,0-0.854-0.198-1.246-0.591c-0.393-0.394-0.591-0.806-0.591-1.245V87.951z"/>
		<path fill="#010303" d="M487.072,99.027c2.184,2.798,2.666,4.241,3.892,7.603c1.222,3.364,1.835,6.882,1.835,10.554
			c0,4.371-0.832,8.478-2.491,12.321c-1.661,3.849-3.933,7.19-6.816,10.03c-2.884,2.842-6.272,5.092-10.159,6.752
			c-3.891,1.657-8.063,2.49-12.521,2.49c-3.846,0-7.561-0.833-11.144-2.49c-3.584-1.66-6.729-3.91-9.438-6.752
			c-2.71-2.84-4.874-6.182-6.489-10.03c-1.618-3.844-2.426-7.95-2.426-12.321c0-6.031,1.377-11.405,4.129-16.124
			c2.754-4.719,6.294-8.41,10.619-11.077c4.327-2.666,9.155-4.13,14.486-4.392c5.33-0.263,10.574,1.006,15.731,3.8
			c0.874,0.439,8.748,6.104,11.128,10.164c0.786,1.25-10.57,10.626-10.954,9.922c-3.221-5.904-7.733-7.586-8.432-8.025
			c-2.099-0.871-4.502-1.311-7.211-1.311c-2.185,0-4.195,0.439-6.029,1.311c-1.837,0.875-3.433,2.076-4.786,3.605
			c-1.356,1.529-2.404,3.341-3.146,5.44c-0.743,2.099-1.114,4.325-1.114,6.686c0,4.896,1.419,8.936,4.26,12.126
			c2.84,3.191,6.443,4.785,10.815,4.785c2.446,0,4.74-0.415,6.883-1.244c2.141-0.832,3.999-2.011,5.57-3.541
			c1.574-1.528,2.819-3.32,3.737-5.374c0.917-2.053,1.376-4.304,1.376-6.752c0-1.572-0.241-3.124-0.721-4.652
			c-0.481-1.529-1.07-2.906-1.77-4.133c-0.7-1.484-0.393-2.75,0.917-3.8l7.867-7.08C485.107,97.083,486.723,98.678,487.072,99.027z"
			/>
		<path fill="#010303" d="M547.07,141.962c0.525,0.698,0.634,1.374,0.327,2.031c-0.307,0.654-0.811,1.159-1.507,1.506
			c-1.836,0.877-3.913,1.641-6.228,2.296c-2.316,0.654-5.046,0.982-8.192,0.982c-3.848,0-7.563-0.833-11.145-2.49
			c-3.584-1.66-6.73-3.91-9.438-6.752c-2.71-2.84-4.873-6.182-6.489-10.03c-1.618-3.844-2.425-7.95-2.425-12.321v-0.132v-0.129
			c0-4.371,0.807-8.478,2.425-12.324c1.616-3.843,3.779-7.188,6.489-10.028c2.708-2.839,5.854-5.09,9.438-6.751
			c3.582-1.66,7.297-2.491,11.145-2.491c4.894,0,9.701,1.095,14.42,3.278c0.436,0.35,0.852,0.721,1.245,1.114
			c0.394,0.393,0.46,0.983,0.198,1.771l-4.721,8.651c-0.438,0.7-1.029,1.202-1.771,1.508c-0.743,0.307-1.464,0.242-2.162-0.197
			c-2.099-0.871-4.503-1.311-7.21-1.311c-2.099,0-4.064,0.439-5.9,1.311c-1.835,0.875-3.431,2.076-4.785,3.605
			c-1.355,1.529-2.424,3.323-3.212,5.375c-0.785,2.055-1.179,4.261-1.179,6.619c0,2.359,0.394,4.591,1.179,6.687
			c0.788,2.098,1.856,3.889,3.212,5.374c1.354,1.487,2.95,2.668,4.785,3.54c1.836,0.875,3.802,1.312,5.9,1.312
			c2.707,0,5.111-0.437,7.21-1.312c0.698-0.436,1.419-0.502,2.162-0.196c0.741,0.306,1.333,0.809,1.771,1.508L547.07,141.962z"/>
		<path fill="#010303" d="M583.643,85.721c4.197,0,8.195,0.767,11.996,2.294c3.802,1.53,7.102,3.759,9.898,6.687
			c2.795,2.93,4.958,6.576,6.489,10.946c1.527,4.371,2.204,9.438,2.032,15.204c0,0.875-0.133,1.488-0.394,1.837
			c-0.263,0.349-0.832,0.524-1.705,0.524c-7.518,0.09-14.333,0.131-20.451,0.131h-23.466c-0.086,0-0.176,0.045-0.262,0.13v0.134
			c0.086,0.438,0.414,1.268,0.984,2.489c0.566,1.226,1.462,2.514,2.686,3.866c1.224,1.357,2.84,2.623,4.851,3.805
			c2.011,1.18,4.543,1.944,7.605,2.292c2.62,0.351,4.98,0.351,7.078,0c2.097-0.348,3.954-0.852,5.569-1.507
			c1.617-0.656,3.017-1.443,4.196-2.359c1.182-0.918,2.166-1.813,2.951-2.689c0.348-0.346,0.74-0.393,1.179-0.129l7.079,6.03
			c0.349,0.351,0.525,0.654,0.525,0.917c0,0.351-0.088,0.613-0.262,0.786c-0.702,0.787-1.771,1.882-3.212,3.277
			c-1.442,1.4-3.323,2.755-5.638,4.063c-2.317,1.313-5.093,2.426-8.323,3.345c-3.235,0.916-6.95,1.331-11.144,1.245
			c-4.195-0.088-8.193-0.983-11.997-2.689c-3.802-1.703-7.102-3.974-9.897-6.815c-2.797-2.84-5.027-6.163-6.686-9.965
			c-1.661-3.8-2.49-7.885-2.49-12.255c0-4.371,0.807-8.476,2.425-12.324c1.616-3.843,3.822-7.187,6.621-10.029
			c2.795-2.837,6.074-5.088,9.832-6.75C575.472,86.553,579.448,85.721,583.643,85.721z M600.03,110.498
			c0.087-0.086,0.131-0.218,0.131-0.395c-0.437-1.048-1.027-2.248-1.77-3.604c-0.742-1.354-1.748-2.622-3.015-3.803
			c-1.269-1.181-2.841-2.183-4.72-3.015c-1.88-0.828-4.13-1.245-6.75-1.245c-2.711,0-5.005,0.505-6.883,1.509
			c-1.882,1.005-3.411,2.163-4.59,3.473c-1.18,1.312-2.055,2.623-2.621,3.932c-0.569,1.313-0.94,2.231-1.113,2.753v0.395
			c0.084,0.088,0.173,0.131,0.261,0.131h30.676C599.9,110.629,600.03,110.586,600.03,110.498z"/>
		<path fill="#010303" d="M652.465,109.45c3.672,0.611,7.08,1.31,10.227,2.097c3.146,0.785,5.875,1.88,8.193,3.276
			c2.314,1.401,4.13,3.191,5.439,5.375c1.313,2.188,1.966,4.896,1.966,8.127c0,2.885-0.633,5.572-1.9,8.063
			c-1.268,2.492-3.058,4.611-5.374,6.359c-2.317,1.747-5.092,3.125-8.324,4.128c-3.236,1.006-6.818,1.508-10.751,1.508
			c-2.884,0-5.658-0.373-8.323-1.114c-2.67-0.74-5.114-1.835-7.341-3.276c-2.23-1.443-4.152-3.212-5.77-5.31
			c-1.618-2.1-2.865-4.456-3.735-7.079c-0.524-0.96-0.394-1.924,0.394-2.885c0.521-0.786,1.353-1.179,2.49-1.179h9.307
			c1.049,0,1.922,0.393,2.622,1.179c1.484,2.186,3.23,3.67,5.244,4.457c2.011,0.787,3.976,1.18,5.9,1.18
			c3.059,0,5.525-0.437,7.404-1.312c1.88-0.871,2.821-2.14,2.821-3.802c0-0.871-0.177-1.638-0.525-2.294
			c-0.351-0.654-0.984-1.244-1.899-1.771c-0.919-0.522-2.211-0.981-3.87-1.374c-1.659-0.395-3.758-0.808-6.29-1.245
			c-2.188-0.349-4.636-0.854-7.344-1.509c-2.709-0.655-5.243-1.64-7.602-2.949c-2.361-1.311-4.326-3.036-5.9-5.178
			c-1.573-2.144-2.358-4.873-2.358-8.193c0-2.361,0.521-4.698,1.572-7.013c1.049-2.315,2.577-4.393,4.588-6.227
			c2.01-1.836,4.479-3.322,7.406-4.458c2.93-1.135,6.313-1.704,10.16-1.704c6.031,0,11.187,1.333,15.47,3.999
			c4.282,2.667,7.384,6.272,9.31,10.815c0.262,1.05,0.085,1.967-0.525,2.752c-0.177,0.438-0.523,0.787-1.05,1.05
			c-0.527,0.261-1.048,0.395-1.572,0.395h-9.439c-0.522,0-1.027-0.134-1.507-0.395c-0.481-0.263-0.942-0.612-1.378-1.05
			c-0.701-1.049-1.923-1.899-3.669-2.556c-1.751-0.656-3.629-1.025-5.639-1.114c-1.749-0.085-3.146,0-4.193,0.263
			c-1.05,0.261-1.858,0.655-2.427,1.179c-0.568,0.525-0.939,1.115-1.113,1.77c-0.176,0.655-0.264,1.245-0.264,1.769
			c0,1.489,0.633,2.538,1.902,3.146C646.064,107.964,648.619,108.663,652.465,109.45z"/>
		<path fill="#010303" d="M712.507,109.45c3.672,0.611,7.079,1.31,10.226,2.097c3.146,0.785,5.877,1.88,8.193,3.276
			c2.314,1.401,4.13,3.191,5.44,5.375c1.311,2.188,1.966,4.896,1.966,8.127c0,2.885-0.634,5.572-1.899,8.063
			c-1.27,2.492-3.06,4.611-5.376,6.359c-2.315,1.747-5.092,3.125-8.324,4.128c-3.235,1.006-6.818,1.508-10.751,1.508
			c-2.883,0-5.658-0.373-8.323-1.114c-2.668-0.74-5.114-1.835-7.341-3.276c-2.229-1.443-4.151-3.212-5.77-5.31
			c-1.618-2.1-2.863-4.456-3.734-7.079c-0.525-0.96-0.395-1.924,0.393-2.885c0.523-0.786,1.353-1.179,2.489-1.179h9.308
			c1.051,0,1.923,0.393,2.622,1.179c1.485,2.186,3.232,3.67,5.244,4.457c2.01,0.787,3.976,1.18,5.899,1.18
			c3.06,0,5.526-0.437,7.406-1.312c1.878-0.871,2.82-2.14,2.82-3.802c0-0.871-0.175-1.638-0.526-2.294
			c-0.351-0.654-0.983-1.244-1.898-1.771c-0.918-0.522-2.21-0.981-3.871-1.374c-1.658-0.395-3.757-0.808-6.29-1.245
			c-2.186-0.349-4.633-0.854-7.341-1.509c-2.709-0.655-5.246-1.64-7.604-2.949c-2.359-1.311-4.325-3.036-5.901-5.178
			c-1.57-2.144-2.357-4.873-2.357-8.193c0-2.361,0.523-4.698,1.573-7.013c1.049-2.315,2.576-4.393,4.587-6.227
			c2.011-1.836,4.479-3.322,7.406-4.458c2.927-1.135,6.314-1.704,10.16-1.704c6.032,0,11.186,1.333,15.471,3.999
			c4.281,2.667,7.385,6.272,9.309,10.815c0.26,1.05,0.084,1.967-0.525,2.752c-0.177,0.438-0.524,0.787-1.05,1.05
			c-0.524,0.261-1.046,0.395-1.572,0.395h-9.438c-0.525,0-1.028-0.134-1.508-0.395c-0.481-0.263-0.939-0.612-1.377-1.05
			c-0.701-1.049-1.924-1.899-3.67-2.556c-1.75-0.656-3.629-1.025-5.639-1.114c-1.749-0.085-3.146,0-4.194,0.263
			c-1.049,0.261-1.858,0.655-2.426,1.179c-0.568,0.525-0.938,1.115-1.113,1.77c-0.177,0.655-0.263,1.245-0.263,1.769
			c0,1.489,0.634,2.538,1.901,3.146C706.104,107.964,708.662,108.663,712.507,109.45z"/>
		<path fill="#010303" d="M852.798,147.86h-12.191c-0.439,0-0.832-0.175-1.181-0.525c-0.35-0.349-0.568-0.697-0.653-1.048
			l-7.866-50.078c0-0.347-0.176-0.568-0.523-0.655c-0.352-0.085-0.613,0.044-0.787,0.393l-23.729,52.174
			c-0.352,0.699-0.875,1.049-1.573,1.049h-2.36c-0.7,0-1.226-0.35-1.573-1.049c-0.088-0.088-0.177-0.22-0.263-0.394
			c-0.088-0.174-0.35-0.763-0.785-1.77c-0.438-1.004-1.114-2.532-2.033-4.588c-0.916-2.052-2.251-5.002-3.997-8.85
			c-1.752-3.843-3.958-8.716-6.622-14.617c-2.665-5.898-5.921-13.216-9.767-21.957c-0.175-0.348-0.438-0.478-0.786-0.393
			c-0.349,0.086-0.57,0.308-0.656,0.655l-8.126,50.208c-0.088,0.352-0.286,0.678-0.592,0.983c-0.308,0.308-0.677,0.46-1.113,0.46
			h-11.93c-0.438,0-0.876-0.24-1.311-0.721c-0.439-0.48-0.569-1.027-0.393-1.641l15.338-89.273c0.175-0.961,0.74-1.443,1.704-1.443
			h3.8c0.786,0,1.355,0.308,1.705,0.917l27.793,62.662c0.437,0.787,0.919,0.787,1.44,0c4.633-10.398,8.564-19.182,11.799-26.348
			c3.233-7.166,5.878-13.065,7.933-17.698c2.054-4.631,3.649-8.194,4.784-10.684c1.136-2.491,1.967-4.326,2.49-5.507
			c0.525-1.179,0.854-1.855,0.984-2.032c0.131-0.173,0.195-0.304,0.195-0.393c0.264-0.61,0.83-0.917,1.705-0.917h3.671
			c0.961,0,1.528,0.482,1.702,1.443c1.923,11.187,3.628,21.04,5.114,29.562c1.484,8.521,2.753,15.927,3.802,22.218
			c1.05,6.293,1.944,11.582,2.688,15.863c0.743,4.282,1.377,7.822,1.9,10.619l1.967,11.274
			C854.766,147.159,854.194,147.86,852.798,147.86z"/>
		<path fill="#010303" d="M925.986,144.583c0,0.962-0.326,1.749-0.982,2.359c-0.656,0.611-1.465,0.918-2.428,0.918h-8.65
			c-0.963,0-1.771-0.307-2.424-0.918c-0.655-0.61-0.985-1.397-0.985-2.359v-12.586c0-1.574,0-3.124,0-4.654
			c0-1.529,0.021-2.926,0.067-4.194c0.042-1.266,0.065-2.296,0.065-3.081c0-0.787,0-1.223,0-1.311c0-4.02-0.787-7.362-2.361-10.03
			c-1.572-2.664-3.8-4.783-6.685-6.357c-2.098-1.134-4.283-1.812-6.556-2.031c-2.273-0.216-4.456-0.021-6.554,0.592
			c-2.097,0.61-4.045,1.595-5.833,2.948c-1.794,1.355-3.259,3.036-4.392,5.047c-1.75,2.973-2.382,6.141-1.902,9.504
			c0.48,3.365,1.682,6.381,3.604,9.046c1.923,2.666,4.436,4.676,7.538,6.029c3.103,1.355,6.443,1.51,10.029,0.46
			c0.874-0.262,1.616-0.195,2.229,0.197c0.61,0.393,1.136,0.938,1.571,1.638l3.542,9.7c0.262,0.702-0.047,1.226-0.919,1.575
			c-4.72,1.572-9.288,2.14-13.698,1.703c-4.414-0.439-8.437-1.618-12.062-3.54c-3.626-1.92-6.774-4.456-9.438-7.603
			c-2.666-3.146-4.635-6.642-5.901-10.487c-1.266-3.844-1.767-7.908-1.506-12.192c0.262-4.282,1.485-8.563,3.668-12.847
			c1.924-3.671,4.547-6.816,7.867-9.439c3.321-2.622,6.949-4.522,10.881-5.702c3.935-1.18,7.951-1.551,12.062-1.115
			c4.107,0.439,7.908,1.88,11.406,4.326c0.609,0.701,1.2,0.963,1.77,0.786c0.567-0.174,0.852-0.742,0.852-1.703
			c0-0.873,0.327-1.66,0.984-2.36c0.655-0.698,1.419-1.049,2.293-1.049h9.437c0.963,0,1.771,0.351,2.428,1.049
			c0.656,0.701,0.982,1.488,0.982,2.36V144.583z"/>
		<path fill="#010303" d="M996.913,86.968c0.219,0.655,0.152,1.291-0.196,1.9l-24.514,23.857c-0.524,0.524-0.57,1.096-0.132,1.705
			c2.097,2.621,4.282,5.375,6.556,8.259c2.271,2.887,4.456,5.702,6.554,8.456c2.098,2.752,4.063,5.332,5.899,7.735
			c1.836,2.405,3.408,4.478,4.72,6.226c0.348,0.613,0.413,1.226,0.197,1.836c-0.222,0.611-0.723,0.918-1.509,0.918h-13.765
			c-0.874,0-1.487-0.263-1.836-0.786l-23.073-31.202v30.152c0,0.439-0.195,0.852-0.588,1.245c-0.395,0.393-0.811,0.591-1.246,0.591
			h-11.406c-0.525,0-0.984-0.198-1.377-0.591c-0.394-0.394-0.588-0.806-0.588-1.245V57.011c0-0.524,0.194-0.982,0.588-1.376
			c0.393-0.394,0.852-0.59,1.377-0.59h11.406c0.436,0,0.852,0.197,1.246,0.59c0.393,0.394,0.588,0.852,0.588,1.376v54.273
			l24.516-23.858c0.438-0.348,0.873-0.676,1.313-0.983c0.436-0.305,0.959-0.459,1.571-0.459h12.323
			C996.236,85.983,996.693,86.312,996.913,86.968z"/>
		<path fill="#010303" d="M1034.342,85.721c4.195,0,8.193,0.767,11.996,2.294c3.803,1.53,7.1,3.759,9.896,6.687
			c2.797,2.93,4.959,6.576,6.49,10.946c1.529,4.371,2.206,9.438,2.031,15.204c0,0.875-0.131,1.488-0.393,1.837
			c-0.264,0.349-0.833,0.524-1.704,0.524c-7.517,0.09-14.334,0.131-20.451,0.131h-23.467c-0.087,0-0.176,0.045-0.263,0.13v0.134
			c0.087,0.438,0.415,1.268,0.984,2.489c0.566,1.226,1.463,2.514,2.687,3.866c1.224,1.357,2.838,2.623,4.853,3.805
			c2.009,1.18,4.541,1.944,7.603,2.292c2.623,0.351,4.981,0.351,7.078,0c2.098-0.348,3.954-0.852,5.572-1.507
			c1.616-0.656,3.015-1.443,4.194-2.359c1.18-0.918,2.164-1.813,2.951-2.689c0.348-0.346,0.742-0.393,1.179-0.129l7.08,6.03
			c0.35,0.351,0.524,0.654,0.524,0.917c0,0.351-0.089,0.613-0.264,0.786c-0.699,0.787-1.77,1.882-3.211,3.277
			c-1.441,1.4-3.322,2.755-5.637,4.063c-2.317,1.313-5.093,2.426-8.325,3.345c-3.233,0.916-6.948,1.331-11.143,1.245
			c-4.196-0.088-8.194-0.983-11.996-2.689c-3.801-1.703-7.102-3.974-9.898-6.815c-2.797-2.84-5.025-6.163-6.685-9.965
			c-1.661-3.8-2.49-7.885-2.49-12.255c0-4.371,0.805-8.476,2.425-12.324c1.615-3.843,3.823-7.187,6.621-10.029
			c2.795-2.837,6.073-5.088,9.832-6.75C1026.17,86.553,1030.147,85.721,1034.342,85.721z M1050.729,110.498
			c0.088-0.086,0.131-0.218,0.131-0.395c-0.437-1.048-1.027-2.248-1.77-3.604c-0.744-1.354-1.748-2.622-3.015-3.803
			c-1.269-1.181-2.842-2.183-4.72-3.015c-1.88-0.828-4.128-1.245-6.751-1.245c-2.711,0-5.004,0.505-6.883,1.509
			c-1.881,1.005-3.409,2.163-4.589,3.473c-1.179,1.312-2.055,2.623-2.622,3.932c-0.569,1.313-0.938,2.231-1.113,2.753v0.395
			c0.085,0.088,0.175,0.131,0.261,0.131h30.678C1050.6,110.629,1050.729,110.586,1050.729,110.498z"/>
		<path fill="#010303" d="M1077.131,87.951c0-0.525,0.196-0.961,0.588-1.312c0.396-0.347,0.811-0.523,1.246-0.523h6.555
			c1.137,0,1.751,0.437,1.836,1.31l0.262,2.36c0.088,0.612,0.154,1.202,0.199,1.77c0.042,0.57,0.064,0.897,0.064,0.983
			c0.175,0.786,0.525,0.917,1.048,0.393c0.524-0.786,1.246-1.659,2.164-2.622c0.917-0.96,2.009-1.854,3.278-2.687
			c1.264-0.829,2.663-1.507,4.193-2.032c1.529-0.525,3.213-0.786,5.047-0.786c1.136,0,2.338,0.088,3.605,0.261
			c1.266,0.176,2.403,0.459,3.408,0.852c1.004,0.394,1.791,0.875,2.36,1.442c0.568,0.569,0.677,1.202,0.328,1.901l-4.852,8.65
			c-0.524,0.876-1.572,1.05-3.145,0.525c-2.187-0.696-4.132-0.742-5.835-0.129c-1.704,0.612-3.126,1.573-4.26,2.884
			c-1.139,1.31-1.988,2.84-2.557,4.587c-0.569,1.749-0.853,3.454-0.853,5.112v35.134c0,1.226-0.831,1.836-2.49,1.836h-10.358
			c-0.436,0-0.851-0.198-1.246-0.591c-0.392-0.394-0.588-0.806-0.588-1.245V87.951z"/>
	</g>
</g>
<g>
	<path fill="#474747" d="M323.897,230.339v-50.283h32.984l-0.953,6.523H331.08v14.807h22.503v6.523H331.08v15.906h25.288
		l1.026,6.523H323.897z"/>
	<path fill="#474747" d="M361.938,230.339l13.779-18.984l-13.047-18.472h8.209l9.017,12.754l9.235-12.754h7.55l-13.12,18.032
		l13.779,19.424h-8.209l-9.748-13.707l-9.896,13.707H361.938z"/>
	<path fill="#474747" d="M427.247,224.328c-2.98,4.497-7.354,6.744-13.12,6.744c-5.669,0-9.407-1.76-11.215-5.278
		c-0.685-1.416-1.026-3.371-1.026-5.863s0.611-4.557,1.832-6.194c1.222-1.637,2.933-2.895,5.132-3.774
		c3.519-1.417,9.553-2.126,18.104-2.126v-3.445c0-1.905-0.342-3.272-1.025-4.104c-1.516-1.759-4.032-2.639-7.551-2.639
		c-3.421,0-5.815,0.832-7.184,2.492c-0.781,0.979-1.172,2.102-1.172,3.372v0.879h-6.744c-0.098-0.487-0.146-1.294-0.146-2.418
		c0-1.075,0.391-2.272,1.173-3.592c0.781-1.319,1.856-2.443,3.226-3.372c2.932-1.905,6.597-2.858,10.994-2.858h0.66
		c4.984,0,8.674,0.989,11.068,2.969c2.394,1.979,3.592,4.801,3.592,8.466v19.424c0,0.929,0.207,1.589,0.623,1.979
		c0.414,0.392,0.891,0.586,1.429,0.586c1.173,0,2.296-0.341,3.372-1.026v5.058c-1.613,0.978-3.494,1.467-5.645,1.467
		c-2.199,0-3.787-0.636-4.764-1.906C427.882,227.896,427.345,226.283,427.247,224.328z M426.954,213.187
		c-6.256,0-10.434,0.33-12.534,0.99c-2.102,0.659-3.567,1.441-4.397,2.346c-0.832,0.904-1.246,2.235-1.246,3.994
		c0,3.372,2.565,5.058,7.696,5.058c2.735,0,5.155-0.953,7.257-2.858c2.149-2.003,3.225-4.691,3.225-8.063V213.187z"/>
	<path fill="#474747" d="M469.761,206.37c0-5.814-2.25-8.723-6.744-8.723c-2.395,0-4.461,1.002-6.193,3.005
		c-1.736,2.005-2.604,4.472-2.604,7.403v22.283h-6.889v-37.456h4.984l0.953,5.498c2.881-4.153,6.816-6.23,11.801-6.23
		c4.934,0,8.355,2.077,10.262,6.23c1.807-2.541,3.701-4.215,5.68-5.021c1.98-0.806,3.922-1.209,5.828-1.209
		c1.855,0,3.518,0.256,4.984,0.77c1.465,0.513,2.736,1.308,3.811,2.382c2.297,2.199,3.445,5.474,3.445,9.822v25.215h-6.891V206.37
		c0-5.814-2.248-8.723-6.742-8.723c-2.395,0-4.461,1.002-6.193,3.005c-1.736,2.005-2.604,4.472-2.604,7.403v22.283h-6.889V206.37z"
		/>
	<path fill="#474747" d="M517.77,225.574v18.032h-6.89v-50.724h5.131c0.244,0.929,0.562,2.639,0.953,5.131
		c2.785-3.908,6.645-5.863,11.581-5.863c4.446,0,8.014,1.539,10.701,4.617c2.98,3.471,4.472,8.43,4.472,14.88v0.807
		c0,5.913-1.418,10.555-4.252,13.927c-2.639,3.128-6.279,4.691-10.921,4.691C523.901,231.072,520.311,229.239,517.77,225.574z
		 M536.827,211.574c0-7.33-1.882-11.728-5.644-13.193c-1.173-0.488-2.468-0.733-3.885-0.733c-3.079,0-5.4,1.002-6.964,3.005
		c-1.759,2.298-2.639,5.938-2.639,10.922c0,7.379,1.906,11.826,5.718,13.341c1.173,0.439,2.467,0.659,3.885,0.659
		c3.029,0,5.325-1.001,6.89-3.005C535.948,220.272,536.827,216.608,536.827,211.574z"/>
	<path fill="#474747" d="M553.905,230.339v-52.775h6.891v52.775H553.905z"/>
	<path fill="#474747" d="M577.8,213.187c0.147,5.767,2.077,9.578,5.791,11.435c1.271,0.636,2.883,0.953,4.838,0.953
		c1.905,0,3.469-0.366,4.691-1.1c1.221-0.732,2.149-1.587,2.785-2.565c1.026-1.563,1.539-3.396,1.539-5.497h6.523
		c0,4.447-1.466,8.015-4.397,10.701c-2.933,2.64-6.695,3.959-11.288,3.959h-0.294c-5.131,0-9.235-1.613-12.313-4.838
		c-3.178-3.42-4.765-8.038-4.765-13.854v-1.466c0-5.815,1.587-10.433,4.765-13.854c2.979-3.273,7.012-4.911,12.094-4.911h0.514
		c4.642,0,8.404,1.418,11.288,4.251c2.932,2.835,4.397,6.695,4.397,11.581v5.204H577.8z M587.915,197.647
		c-2.737,0-4.984,0.843-6.743,2.529c-1.759,1.686-2.835,4.239-3.225,7.659h19.204v-0.88c0-2.932-0.905-5.252-2.712-6.963
		C592.777,198.43,590.603,197.647,587.915,197.647z"/>
	<path fill="#474747" d="M611.226,220.224l0.073-1.612h6.816v0.732c0,3.079,1.954,5.034,5.864,5.864
		c1.173,0.245,2.712,0.366,4.617,0.366c1.906,0,3.714-0.451,5.425-1.355c1.71-0.904,2.565-2.187,2.565-3.849
		c0-1.66-0.6-2.87-1.796-3.628c-1.198-0.757-2.701-1.344-4.508-1.76c-1.809-0.414-3.751-0.793-5.827-1.136
		c-2.078-0.342-4.021-0.891-5.828-1.649c-1.808-0.757-3.311-1.808-4.508-3.151s-1.796-3.262-1.796-5.754
		c0-3.47,1.368-6.194,4.105-8.173c2.736-1.979,6.474-2.969,11.215-2.969h0.659c4.349,0,7.843,1.002,10.481,3.005
		c2.541,1.955,3.812,4.35,3.812,7.184l-0.073,1.319h-6.816v-0.66c0-3.566-2.762-5.351-8.283-5.351c-4.446,0-7.086,1.1-7.916,3.299
		c-0.195,0.586-0.293,1.124-0.293,1.612c0,1.368,0.598,2.395,1.796,3.078c1.196,0.686,2.699,1.223,4.508,1.613
		c1.808,0.392,3.75,0.77,5.827,1.136c2.076,0.366,4.019,0.941,5.827,1.723c4.202,1.759,6.304,4.74,6.304,8.942
		c0,4.251-1.539,7.379-4.618,9.382c-2.736,1.76-6.499,2.64-11.287,2.64h-1.1c-4.984,0-8.821-1.124-11.508-3.372
		C612.472,225.647,611.226,223.155,611.226,220.224z"/>
	<path fill="#474747" d="M677.926,225.574v18.032h-6.89v-50.724h5.131c0.244,0.929,0.562,2.639,0.953,5.131
		c2.785-3.908,6.645-5.863,11.581-5.863c4.446,0,8.014,1.539,10.701,4.617c2.98,3.471,4.472,8.43,4.472,14.88v0.807
		c0,5.913-1.418,10.555-4.252,13.927c-2.639,3.128-6.279,4.691-10.921,4.691C684.058,231.072,680.467,229.239,677.926,225.574z
		 M696.983,211.574c0-7.33-1.882-11.728-5.644-13.193c-1.173-0.488-2.468-0.733-3.885-0.733c-3.079,0-5.4,1.002-6.964,3.005
		c-1.759,2.298-2.639,5.938-2.639,10.922c0,7.379,1.906,11.826,5.718,13.341c1.173,0.439,2.467,0.659,3.885,0.659
		c3.029,0,5.325-1.001,6.89-3.005C696.104,220.272,696.983,216.608,696.983,211.574z"/>
	<path fill="#474747" d="M745.946,212.967c0,5.913-1.686,10.482-5.058,13.707c-3.078,2.932-7.135,4.398-12.167,4.398
		c-5.034,0-9.09-1.467-12.168-4.398c-3.372-3.225-5.058-7.794-5.058-13.707v-2.712c0-5.912,1.686-10.456,5.058-13.634
		c3.078-2.979,7.134-4.471,12.168-4.471c5.032,0,9.089,1.491,12.167,4.471c3.372,3.178,5.058,7.722,5.058,13.634V212.967z
		 M739.057,210.915c0-4.496-1.002-7.892-3.006-10.188c-1.759-2.053-4.203-3.079-7.329-3.079c-4.838,0-8.015,2.395-9.529,7.184
		c-0.538,1.711-0.807,3.738-0.807,6.084v1.393c0,4.496,1.001,7.892,3.006,10.188c1.759,2.052,4.202,3.078,7.33,3.078
		c4.837,0,8.014-2.419,9.528-7.257c0.537-1.66,0.807-3.664,0.807-6.01V210.915z"/>
	<path fill="#474747" d="M783.768,203.878l-0.22,2.785h-6.084v-1.612c0-1.71-0.439-3.103-1.319-4.178
		c-1.612-2.15-3.592-3.226-5.938-3.226c-2.591,0-4.544,1.125-5.863,3.372c-1.076,1.857-1.613,4.178-1.613,6.963v22.356h-6.89
		v-37.456h4.911l1.026,5.571c0.732-2.199,2.735-3.982,6.01-5.351c1.417-0.635,3.054-0.953,4.911-0.953
		c1.856,0,3.457,0.306,4.801,0.916c1.344,0.611,2.48,1.454,3.409,2.528C782.814,197.746,783.768,200.506,783.768,203.878z"/>
	<path fill="#474747" d="M803.998,225.721c1.27,0,2.785-0.366,4.544-1.1v5.132c-1.759,0.879-4.031,1.319-6.816,1.319
		c-2.835,0-5.01-0.831-6.523-2.492c-1.516-1.661-2.272-4.398-2.272-8.21v-21.989h-4.105v-5.498h4.325l2.346-11.947h4.324v11.947
		h8.723v5.498h-8.723v22.355c0,2.786,0.88,4.374,2.639,4.765C802.946,225.647,803.459,225.721,803.998,225.721z"/>
	<path fill="#474747" d="M839.914,224.328c-2.981,4.497-7.355,6.744-13.121,6.744c-5.669,0-9.407-1.76-11.214-5.278
		c-0.686-1.416-1.026-3.371-1.026-5.863s0.61-4.557,1.832-6.194c1.221-1.637,2.933-2.895,5.131-3.774
		c3.519-1.417,9.553-2.126,18.105-2.126v-3.445c0-1.905-0.343-3.272-1.026-4.104c-1.516-1.759-4.031-2.639-7.55-2.639
		c-3.421,0-5.816,0.832-7.184,2.492c-0.782,0.979-1.173,2.102-1.173,3.372v0.879h-6.743c-0.099-0.487-0.146-1.294-0.146-2.418
		c0-1.075,0.391-2.272,1.173-3.592c0.781-1.319,1.856-2.443,3.225-3.372c2.933-1.905,6.597-2.858,10.995-2.858h0.659
		c4.984,0,8.674,0.989,11.068,2.969c2.394,1.979,3.592,4.801,3.592,8.466v19.424c0,0.929,0.207,1.589,0.623,1.979
		c0.415,0.392,0.892,0.586,1.43,0.586c1.173,0,2.296-0.341,3.371-1.026v5.058c-1.612,0.978-3.494,1.467-5.644,1.467
		c-2.199,0-3.787-0.636-4.765-1.906S840.012,226.283,839.914,224.328z M839.621,213.187c-6.256,0-10.434,0.33-12.534,0.99
		c-2.102,0.659-3.568,1.441-4.398,2.346c-0.831,0.904-1.246,2.235-1.246,3.994c0,3.372,2.565,5.058,7.696,5.058
		c2.736,0,5.155-0.953,7.257-2.858c2.149-2.003,3.226-4.691,3.226-8.063V213.187z"/>
	<path fill="#474747" d="M860.29,230.339v-52.775h6.891v52.775H860.29z"/>
</g>
<g>
	<path fill="#010303" d="M1151.832,81.757h15.199v68.103h-15.199V81.757z"/>
	<path fill="#010303" d="M1218.862,71.43h13.835l-40.92,89.343h-13.737L1218.862,71.43z"/>
	<path fill="#010303" d="M1298.561,140.458c-6.885,6.723-15.361,10.084-25.429,10.084c-10.068,0-18.545-3.361-25.429-10.084
		c-6.886-6.723-10.328-15.084-10.328-25.088c0-10.001,3.442-18.365,10.328-25.088c6.884-6.723,15.36-10.084,25.429-10.084
		c10.067,0,18.544,3.361,25.429,10.084s10.328,15.087,10.328,25.088C1308.889,125.374,1305.445,133.735,1298.561,140.458z
		 M1293.397,115.419c0-6.072-1.95-11.253-5.846-15.54c-3.897-4.287-8.688-6.43-14.371-6.43c-5.685,0-10.474,2.144-14.37,6.43
		c-3.898,4.287-5.847,9.468-5.847,15.54c0,6.074,1.948,11.238,5.847,15.491c3.896,4.255,8.686,6.382,14.37,6.382
		c5.683,0,10.474-2.127,14.371-6.382C1291.447,126.657,1293.397,121.493,1293.397,115.419z"/>
</g>
</svg>
